<svg width="80" height="80" viewBox="0 0 80 80" fill="rgb(62 201 114)" xmlns="http://www.w3.org/2000/svg">
  <path d="M68 40C68 55.464 55.464 68 40 68C24.536 68 12 55.464 12 40C12 24.536 24.536 12 40 12C55.464 12 68 24.536 68 40Z" stroke="#yellow" stroke-linecap="round" stroke-linejoin="round" />
  <svg width="80" height="80" viewBox="-1 -13 80 80" fill="rgb(59, 130, 246)" xmlns="http://www.w3.org/2000/svg">

  <path d="M38.0625 28.4238V40.9999" stroke-width="2.5" fill="#ffff" stroke="#ffff" stroke-linecap="round" stroke-linejoin="round" />
    <path d="M34.9997 32.39C29.9257 32.39 25.8125 28.2469 25.8125 23.1361C25.8125 22.055 25.9966 21.0172 26.3348 20.0527C28.0653 20.1397 29.7681 20.5929 31.3288 21.3938C33.6539 22.5871 35.5442 24.4912 36.7289 26.8331C37.5242 28.4053 37.9741 30.1208 38.0604 31.864C37.103 32.2046 36.0728 32.39 34.9997 32.39Z" stroke="#fff" fill="#fff" stroke-linecap="round" stroke-linejoin="round" />
    <path d="M42 28.8648C48.5239 28.8648 53.8125 23.5379 53.8125 16.9667C53.8125 15.5767 53.5759 14.2424 53.141 13.0024C50.9159 13.1143 48.7264 13.6969 46.7196 14.7268C43.7301 16.261 41.2996 18.7092 39.7764 21.7203C38.7539 23.7417 38.1754 25.9472 38.0645 28.1885C39.2955 28.6265 40.6201 28.8648 42 28.8648Z" stroke="#fff" fill="#fff" stroke-linecap="round" stroke-linejoin="round" />
  </svg></svg>


