<svg width="80" height="80" viewBox="0 0 80 80" fill="rgb(59, 130, 246)" xmlns="http://www.w3.org/2000/svg">
  <path d="M68 40C68 55.464 55.464 68 40 68C24.536 68 12 55.464 12 40C12 24.536 24.536 12 40 12C55.464 12 68 24.536 68 40Z" stroke="#yellow" stroke-linecap="round" stroke-linejoin="round" />
  <path d="M36.5377 45.7698L29.2952 45.7698C28.5068 45.7698 28.0285 44.9001 28.4507 44.2343L41.5705 23.5449C42.1068 22.6993 43.4151 23.0791 43.4151 24.0804V38.2297L50.6576 38.2297C51.446 38.2297 51.9243 39.0995 51.5021 39.7653L38.3823 60.4547C37.846 61.3003 36.5377 60.9204 36.5377 59.9192V45.7698Z" stroke-width="1" stroke="white" fill="white" stroke-linecap="round" stroke-linejoin="round" />
 </svg>