<?xml version="1.0" encoding="iso-8859-1"?>
<!-- Generator: Adobe Illustrator 27.0.0, SVG Export Plug-In . SVG Version: 6.00 Build 0)  -->
<svg version="1.1" id="Layer_1" xmlns="http://www.w3.org/2000/svg" xmlns:xlink="http://www.w3.org/1999/xlink" x="0px" y="0px"
	 viewBox="0 0 500 500" style="enable-background:new 0 0 500 500;" xml:space="preserve">
<g id="watermark_1_">
	<g>
		<g id="watermark" style="opacity:0.61;">
			<g>
				<g>
					<g>
						<g>
							<polygon style="fill:#FFFFFF;" points="213.765,461.172 208.204,474.017 205.268,474.017 199.726,461.172 202.938,461.172 
								206.846,470.347 210.81,461.172 							"/>
						</g>
						<g>
							<path style="fill:#FFFFFF;" d="M223.507,469.741h-7.469c0.275,1.23,1.321,1.982,2.826,1.982c1.046,0,1.798-0.312,2.477-0.954
								l1.523,1.651c-0.917,1.046-2.294,1.597-4.074,1.597c-3.413,0-5.634-2.147-5.634-5.083c0-2.954,2.257-5.083,5.267-5.083
								c2.899,0,5.138,1.945,5.138,5.12C223.562,469.191,223.526,469.503,223.507,469.741 M216.002,468.071h4.863
								c-0.202-1.248-1.138-2.055-2.422-2.055C217.139,466.016,216.204,466.805,216.002,468.071"/>
						</g>
						<g>
							<path style="fill:#FFFFFF;" d="M224.735,468.934c0-2.973,2.294-5.083,5.505-5.083c2.074,0,3.707,0.899,4.423,2.514
								l-2.22,1.193c-0.532-0.936-1.321-1.358-2.221-1.358c-1.45,0-2.587,1.009-2.587,2.734c0,1.725,1.138,2.734,2.587,2.734
								c0.899,0,1.688-0.404,2.221-1.358l2.22,1.211c-0.716,1.578-2.349,2.495-4.423,2.495
								C227.029,474.017,224.735,471.907,224.735,468.934"/>
						</g>
						<g>
							<path style="fill:#FFFFFF;" d="M242.828,473.393c-0.587,0.422-1.45,0.624-2.331,0.624c-2.33,0-3.688-1.193-3.688-3.542
								v-4.055h-1.523v-2.202h1.523v-2.404h2.863v2.404h2.459v2.202h-2.459v4.019c0,0.844,0.458,1.303,1.229,1.303
								c0.422,0,0.844-0.128,1.156-0.367L242.828,473.393z"/>
						</g>
					</g>
					<g>
						<path style="fill:#FFFFFF;" d="M262.474,463.997v2.643c-0.238-0.018-0.422-0.037-0.642-0.037
							c-1.578,0-2.624,0.862-2.624,2.753v4.661h-2.863v-9.873h2.734v1.303C259.776,464.493,260.951,463.997,262.474,463.997"/>
					</g>
					<g>
						<path style="fill:#FFFFFF;" d="M263.299,472.53l1.009-2.239c1.083,0.789,2.697,1.339,4.239,1.339
							c1.762,0,2.477-0.587,2.477-1.376c0-2.404-7.469-0.752-7.469-5.524c0-2.184,1.762-4,5.413-4c1.615,0,3.267,0.385,4.459,1.138
							l-0.918,2.257c-1.193-0.679-2.422-1.009-3.56-1.009c-1.761,0-2.44,0.66-2.44,1.468c0,2.367,7.468,0.734,7.468,5.45
							c0,2.147-1.78,3.982-5.45,3.982C266.492,474.017,264.437,473.411,263.299,472.53"/>
					</g>
					<g>
						<path style="fill:#FFFFFF;" d="M285.428,469.741h-7.469c0.275,1.23,1.321,1.982,2.826,1.982c1.046,0,1.798-0.312,2.477-0.954
							l1.523,1.651c-0.918,1.046-2.294,1.597-4.074,1.597c-3.413,0-5.634-2.147-5.634-5.083c0-2.954,2.257-5.083,5.267-5.083
							c2.9,0,5.138,1.945,5.138,5.12C285.484,469.191,285.447,469.503,285.428,469.741 M277.923,468.071h4.863
							c-0.202-1.248-1.138-2.055-2.422-2.055C279.061,466.016,278.125,466.805,277.923,468.071"/>
					</g>
					<g>
						<path style="fill:#FFFFFF;" d="M297.007,469.741h-7.469c0.275,1.23,1.321,1.982,2.826,1.982c1.046,0,1.798-0.312,2.477-0.954
							l1.523,1.651c-0.918,1.046-2.294,1.597-4.074,1.597c-3.413,0-5.634-2.147-5.634-5.083c0-2.954,2.257-5.083,5.267-5.083
							c2.899,0,5.138,1.945,5.138,5.12C297.062,469.191,297.025,469.503,297.007,469.741 M289.501,468.071h4.863
							c-0.202-1.248-1.138-2.055-2.422-2.055C290.639,466.016,289.703,466.805,289.501,468.071"/>
					</g>
					<g>
						<polygon style="fill:#FFFFFF;" points="303.208,470.145 301.831,471.503 301.831,474.017 298.969,474.017 298.969,460.401 
							301.831,460.401 301.831,468.108 306.016,464.144 309.429,464.144 305.318,468.328 309.796,474.017 306.327,474.017 						"/>
					</g>
					<g>
						<path style="fill:#FFFFFF;" d="M256.601,475.359L256.601,475.359l-2.86-2.86c-0.435,0.508-0.953,0.943-1.534,1.284
							c-0.092,0.069-0.186,0.136-0.283,0.199l3.027,3.027c0.456,0.456,1.195,0.456,1.65,0
							C257.057,476.554,257.057,475.815,256.601,475.359"/>
					</g>
					<g>
						<path style="fill:#FFFFFF;" d="M249.984,463.244c0.221-0.173,0.495-0.281,0.797-0.281c0.042,0,0.083,0.002,0.124,0.006
							c-0.214-0.156-0.478-0.249-0.764-0.249c-0.395,0-0.744,0.18-0.981,0.458c-0.051,0-0.1,0.006-0.151,0.008
							c0.039-0.077,0.064-0.162,0.064-0.255c0-0.234-0.143-0.434-0.346-0.519c0.087,0.126,0.138,0.279,0.138,0.445
							c0,0.122-0.031,0.237-0.081,0.341c-2.811,0.201-5.03,2.539-5.03,5.4c0,2.993,2.426,5.42,5.42,5.42
							c2.993,0,5.42-2.426,5.42-5.42C254.595,465.879,252.593,463.635,249.984,463.244 M247.983,464.656
							c0.435,0,0.844,0.112,1.199,0.309c0.374-0.245,0.82-0.387,1.299-0.387c0.711,0,1.348,0.312,1.784,0.806
							c-0.435-0.379-1.004-0.61-1.627-0.61c-0.449,0-0.87,0.12-1.234,0.329c-0.079,0.046-0.156,0.096-0.229,0.15
							c-0.065-0.048-0.133-0.093-0.204-0.134c-0.369-0.219-0.8-0.344-1.26-0.344c-0.3,0-0.588,0.054-0.854,0.152
							C247.196,464.754,247.578,464.656,247.983,464.656 M251.772,469.098c0.115,0.305,0.181,0.634,0.181,0.979
							c0,1.534-1.244,2.777-2.778,2.777c-1.534,0-2.777-1.243-2.777-2.777c0-0.345,0.066-0.674,0.181-0.979
							c-0.62-0.382-1.035-1.064-1.035-1.846c0-1.197,0.971-2.168,2.168-2.168c0.565,0,1.078,0.218,1.463,0.572
							c0.386-0.354,0.899-0.572,1.464-0.572c1.197,0,2.168,0.971,2.168,2.168C252.807,468.034,252.392,468.716,251.772,469.098"/>
					</g>
					<g>
						<path style="fill:#FFFFFF;" d="M251.666,467.061c0,0.497-0.404,0.901-0.901,0.901c-0.497,0-0.901-0.404-0.901-0.901
							s0.404-0.901,0.901-0.901c0.101,0,0.197,0.017,0.287,0.047c-0.03,0.062-0.045,0.132-0.045,0.204
							c0,0.273,0.221,0.494,0.494,0.494c0.05,0,0.099-0.008,0.146-0.022C251.66,466.941,251.666,467,251.666,467.061"/>
					</g>
					<g>
						<path style="fill:#FFFFFF;" d="M248.255,467.061c0,0.376-0.305,0.681-0.681,0.681c-0.376,0-0.681-0.305-0.681-0.681
							s0.305-0.681,0.681-0.681c0.076,0,0.149,0.013,0.217,0.035c-0.023,0.047-0.034,0.1-0.034,0.155
							c0,0.206,0.167,0.374,0.374,0.374c0.038,0,0.075-0.006,0.11-0.017C248.25,466.97,248.255,467.015,248.255,467.061"/>
					</g>
					<g>
						<g>
							<g>
								<rect x="242.908" y="467.83" style="fill:#FFFFFF;" width="0.616" height="0.616"/>
							</g>
							<g>
								<rect x="254.827" y="467.83" style="fill:#FFFFFF;" width="0.616" height="0.616"/>
							</g>
							<g>
								<path style="fill:#FFFFFF;" d="M255.205,468.082h-0.14c0-3.248-2.642-5.89-5.89-5.89c-3.248,0-5.89,2.642-5.89,5.89h-0.14
									c0-1.611,0.627-3.125,1.766-4.264c1.139-1.139,2.653-1.766,4.264-1.766c1.611,0,3.125,0.627,4.264,1.766
									C254.578,464.957,255.205,466.471,255.205,468.082"/>
							</g>
						</g>
						<g>
							<rect x="248.868" y="461.814" style="fill:#FFFFFF;" width="0.616" height="0.616"/>
						</g>
						<g>
							<rect x="244.95" y="462.052" style="fill:#FFFFFF;" width="8.45" height="0.14"/>
						</g>
						<g>
							<path style="fill:#FFFFFF;" d="M245.174,462.15c0,0.108-0.088,0.196-0.196,0.196c-0.108,0-0.196-0.088-0.196-0.196
								c0-0.108,0.088-0.196,0.196-0.196C245.086,461.954,245.174,462.042,245.174,462.15"/>
						</g>
						<g>
							<path style="fill:#FFFFFF;" d="M253.596,462.15c0,0.108-0.088,0.196-0.196,0.196c-0.108,0-0.196-0.088-0.196-0.196
								c0-0.108,0.088-0.196,0.196-0.196C253.509,461.954,253.596,462.042,253.596,462.15"/>
						</g>
					</g>
				</g>
				<g>
					<path style="fill:#FFFFFF;" d="M314.356,473.409c0,1.559-2.364,1.559-2.364,0C311.993,471.851,314.356,471.851,314.356,473.409
						z"/>
				</g>
				<g>
					<g>
						<g>
							<path style="fill:#FFFFFF;" d="M161.739,466.549l1.772,6.088l1.855-6.088h2.215l-2.823,8.14h-2.33l-0.837-2.396l-0.722-2.708
								l-0.722,2.708l-0.837,2.396h-2.33l-2.839-8.14h2.231l1.855,6.088l1.756-6.088H161.739z"/>
						</g>
						<g>
							<path style="fill:#FFFFFF;" d="M176.713,466.549l1.772,6.088l1.855-6.088h2.215l-2.823,8.14h-2.33l-0.837-2.396l-0.722-2.708
								l-0.722,2.708l-0.837,2.396h-2.33l-2.839-8.14h2.231l1.855,6.088l1.756-6.088H176.713z"/>
						</g>
						<g>
							<path style="fill:#FFFFFF;" d="M191.687,466.549l1.772,6.088l1.855-6.088h2.215l-2.823,8.14h-2.33l-0.837-2.396l-0.722-2.708
								l-0.722,2.708l-0.837,2.396h-2.33l-2.839-8.14h2.231l1.855,6.088l1.756-6.088H191.687z"/>
						</g>
					</g>
					<g>
						<path style="fill:#FFFFFF;" d="M200.908,473.52c0,1.559-2.364,1.559-2.364,0C198.545,471.962,200.908,471.962,200.908,473.52z
							"/>
					</g>
					<g>
						<path style="fill:#FFFFFF;" d="M322.71,473.409c-0.935,0.919-1.919,1.28-3.117,1.28c-2.346,0-4.3-1.411-4.3-4.282
							s1.953-4.284,4.3-4.284c1.149,0,2.035,0.329,2.921,1.199l-1.264,1.329c-0.476-0.428-1.066-0.64-1.623-0.64
							c-1.346,0-2.33,0.985-2.33,2.396c0,1.542,1.05,2.362,2.297,2.362c0.64,0,1.28-0.18,1.772-0.672L322.71,473.409z"/>
					</g>
					<g>
						<path style="fill:#FFFFFF;" d="M331.805,470.472c0,2.33-1.591,4.217-4.217,4.217c-2.626,0-4.201-1.887-4.201-4.217
							c0-2.314,1.609-4.217,4.185-4.217C330.149,466.255,331.805,468.158,331.805,470.472z M325.389,470.472
							c0,1.231,0.739,2.38,2.199,2.38c1.46,0,2.199-1.149,2.199-2.38c0-1.215-0.854-2.396-2.199-2.396
							C326.144,468.077,325.389,469.258,325.389,470.472z"/>
					</g>
					<g>
						<path style="fill:#FFFFFF;" d="M338.572,474.689v-4.332c0-1.068-0.559-2.035-1.658-2.035c-1.082,0-1.722,0.967-1.722,2.035
							v4.332h-2.003v-8.107h1.855l0.148,0.985c0.426-0.82,1.362-1.116,2.133-1.116c0.969,0,1.937,0.394,2.396,1.51
							c0.723-1.149,1.658-1.478,2.708-1.478c2.297,0,3.43,1.412,3.43,3.84v4.365h-2.003v-4.365c0-1.066-0.442-1.97-1.526-1.97
							c-1.082,0-1.756,0.935-1.756,2.003v4.332H338.572z"/>
					</g>
				</g>
			</g>
		</g>
		<g style="opacity:0.61;">
			<g>
				<g>
					<path style="fill:#FFFFFF;" d="M345.988,431.299c-0.006-1.224-0.959-2.121-2.189-2.14c-0.924-0.014-0.832,0.12-0.834-0.867
						c-0.003-1.097-0.007-2.194,0.003-3.292c0.003-0.379-0.112-0.691-0.362-0.976c-2.342-2.668-4.678-5.342-7.019-8.011
						c-0.12-0.137-0.275-0.244-0.414-0.366c-6.214,0-12.427,0-18.641,0c-0.794,0.293-1.14,0.868-1.138,1.709
						c0.01,3.748,0.004,7.496,0.004,11.243c0,0.556-0.003,0.589-0.55,0.551c-1.497-0.102-2.516,0.986-2.497,2.492
						c0.044,3.476,0.013,6.953,0.014,10.429c0.001,1.58,0.867,2.443,2.45,2.449c0.582,0.002,0.582,0.002,0.582,0.6
						c0,2.219-0.001,4.438,0.001,6.657c0.001,1.192,0.58,1.771,1.768,1.771c8.013,0.001,16.027,0.001,24.04,0
						c1.168,0,1.755-0.583,1.757-1.745c0.002-2.256,0-4.512,0.001-6.768c0-0.512,0.002-0.511,0.52-0.515
						c0.271-0.002,0.541,0.008,0.809-0.058c0.996-0.246,1.69-1.044,1.694-2.069C346.003,438.696,346.005,434.997,345.988,431.299z
						 M317.537,417.162c5.337,0,10.674,0,16.01,0c0.548,0,0.554,0.007,0.554,0.561c0.001,2.243-0.001,4.486,0.001,6.73
						c0.001,0.811,0.249,1.059,1.06,1.059c1.91,0.001,3.821,0,5.731,0.001c0.458,0,0.479,0.021,0.481,0.483
						c0.003,0.887,0.002,1.775,0,2.662c-0.001,0.477-0.024,0.498-0.504,0.499c-3.895,0.001-7.79,0-11.684,0
						c-3.882,0-7.765,0-11.647,0c-0.55,0-0.552-0.001-0.552-0.561c-0.001-3.624-0.001-7.247,0-10.871
						C316.987,417.166,316.991,417.162,317.537,417.162z M340.822,451.579c-3.883,0.001-7.766,0-11.65,0c-3.871,0-7.742,0-11.613,0
						c-0.572,0-0.574-0.002-0.574-0.579c-0.001-1.997-0.001-3.994,0.001-5.991c0-0.464,0.023-0.486,0.478-0.487
						c7.803-0.001,15.607-0.001,23.41,0c0.478,0,0.499,0.02,0.499,0.503c0.002,1.997,0.001,3.994,0,5.991
						C341.375,451.574,341.37,451.579,340.822,451.579z"/>
				</g>
				<g>
					<g>
						<rect x="327.418" y="417.053" style="fill:#FFFFFF;" width="1.757" height="1.054"/>
					</g>
					<g>
						<rect x="325.662" y="418.107" style="fill:#FFFFFF;" width="1.757" height="1.054"/>
					</g>
					<g>
						<rect x="327.418" y="419.161" style="fill:#FFFFFF;" width="1.757" height="1.054"/>
					</g>
					<g>
						<rect x="325.662" y="420.215" style="fill:#FFFFFF;" width="1.757" height="1.054"/>
					</g>
					<g>
						<rect x="327.418" y="421.269" style="fill:#FFFFFF;" width="1.757" height="1.054"/>
					</g>
					<g>
						<rect x="325.662" y="422.323" style="fill:#FFFFFF;" width="1.757" height="1.054"/>
					</g>
					<g>
						<rect x="327.418" y="423.378" style="fill:#FFFFFF;" width="1.757" height="1.054"/>
					</g>
					<g>
						<rect x="325.662" y="424.432" style="fill:#FFFFFF;" width="1.757" height="1.054"/>
					</g>
					<g>
						<rect x="327.418" y="425.486" style="fill:#FFFFFF;" width="1.757" height="1.054"/>
					</g>
					<g>
						<rect x="325.662" y="426.54" style="fill:#FFFFFF;" width="1.757" height="1.054"/>
					</g>
					<g>
						<rect x="327.418" y="427.594" style="fill:#FFFFFF;" width="1.757" height="1.054"/>
					</g>
					<g>
						<rect x="325.662" y="428.648" style="fill:#FFFFFF;" width="1.757" height="1.054"/>
					</g>
				</g>
			</g>
			<g>
				<path style="fill:#FFFFFF;" d="M187.637,431.299c-0.006-1.224-0.959-2.121-2.189-2.14c-0.924-0.014-0.832,0.12-0.834-0.867
					c-0.003-1.097-0.007-2.194,0.003-3.292c0.003-0.379-0.112-0.691-0.362-0.976c-2.342-2.668-4.678-5.342-7.019-8.011
					c-0.12-0.137-0.275-0.244-0.414-0.366c-6.214,0-12.427,0-18.641,0c-0.794,0.293-1.14,0.868-1.138,1.709
					c0.01,3.748,0.004,7.496,0.004,11.243c0,0.556-0.003,0.589-0.55,0.551c-1.497-0.102-2.516,0.986-2.497,2.492
					c0.044,3.476,0.013,6.953,0.014,10.429c0.001,1.58,0.867,2.443,2.45,2.449c0.582,0.002,0.582,0.002,0.582,0.6
					c0,2.219-0.001,4.438,0.001,6.657c0.001,1.192,0.58,1.771,1.768,1.771c8.013,0.001,16.027,0.001,24.04,0
					c1.168,0,1.755-0.583,1.757-1.745c0.002-2.256,0-4.512,0.001-6.768c0-0.512,0.002-0.511,0.52-0.515
					c0.271-0.002,0.541,0.008,0.809-0.058c0.996-0.246,1.69-1.044,1.694-2.069C187.652,438.696,187.655,434.997,187.637,431.299z
					 M159.187,417.162c5.337,0,10.674,0,16.01,0c0.548,0,0.554,0.007,0.554,0.561c0.001,2.243-0.001,4.486,0.001,6.73
					c0.001,0.811,0.249,1.059,1.06,1.059c1.91,0.001,3.821,0,5.731,0.001c0.458,0,0.479,0.021,0.481,0.483
					c0.003,0.887,0.002,1.775,0,2.662c-0.001,0.477-0.024,0.498-0.504,0.499c-3.895,0.001-7.79,0-11.684,0
					c-3.882,0-7.765,0-11.647,0c-0.55,0-0.552-0.001-0.552-0.561c-0.001-3.624-0.001-7.247,0-10.871
					C158.636,417.166,158.64,417.162,159.187,417.162z M182.472,451.579c-3.883,0.001-7.766,0-11.65,0c-3.871,0-7.742,0-11.613,0
					c-0.572,0-0.574-0.002-0.574-0.579c-0.001-1.997-0.001-3.994,0.001-5.991c0-0.464,0.023-0.486,0.478-0.487
					c7.803-0.001,15.607-0.001,23.41,0c0.478,0,0.499,0.02,0.499,0.503c0.002,1.997,0.001,3.994,0,5.991
					C183.024,451.574,183.019,451.579,182.472,451.579z"/>
			</g>
			<g>
				<path style="fill:#FFFFFF;" d="M159.779,440.669v-7.897h2.779c0.375,0,0.726,0.061,1.053,0.182
					c0.327,0.121,0.612,0.292,0.855,0.513c0.242,0.221,0.434,0.483,0.573,0.789c0.14,0.305,0.21,0.642,0.21,1.009
					c0,0.375-0.07,0.715-0.21,1.02c-0.14,0.305-0.331,0.568-0.573,0.789c-0.243,0.221-0.528,0.392-0.855,0.513
					c-0.327,0.121-0.678,0.182-1.053,0.182h-1.29v2.901H159.779z M162.58,436.356c0.39,0,0.684-0.111,0.882-0.331
					c0.199-0.22,0.298-0.474,0.298-0.761c0-0.14-0.024-0.276-0.072-0.408c-0.048-0.132-0.121-0.248-0.221-0.347
					c-0.099-0.099-0.223-0.178-0.37-0.237c-0.147-0.059-0.32-0.089-0.518-0.089h-1.312v2.173H162.58z"/>
				<path style="fill:#FFFFFF;" d="M166.308,432.771h1.731l3.177,5.294h0.088l-0.088-1.522v-3.772h1.478v7.897h-1.566l-3.353-5.592
					h-0.088l0.088,1.522v4.07h-1.467V432.771z"/>
				<path style="fill:#FFFFFF;" d="M177.922,436.334h3.872c0.022,0.089,0.04,0.195,0.055,0.32c0.014,0.125,0.022,0.25,0.022,0.375
					c0,0.507-0.077,0.985-0.231,1.434c-0.154,0.449-0.397,0.849-0.728,1.202c-0.353,0.375-0.776,0.666-1.268,0.871
					c-0.493,0.206-1.055,0.309-1.688,0.309c-0.574,0-1.114-0.103-1.622-0.309c-0.507-0.206-0.948-0.492-1.323-0.86
					c-0.375-0.367-0.673-0.803-0.894-1.307c-0.221-0.504-0.331-1.053-0.331-1.649c0-0.595,0.11-1.145,0.331-1.649
					c0.221-0.504,0.518-0.939,0.894-1.307c0.375-0.367,0.816-0.654,1.323-0.86c0.507-0.206,1.048-0.309,1.622-0.309
					c0.64,0,1.211,0.11,1.715,0.331c0.504,0.221,0.935,0.526,1.296,0.915l-1.025,1.004c-0.258-0.272-0.544-0.48-0.861-0.623
					c-0.316-0.143-0.695-0.215-1.136-0.215c-0.361,0-0.703,0.065-1.026,0.193c-0.324,0.129-0.607,0.311-0.85,0.546
					c-0.242,0.235-0.436,0.52-0.579,0.855c-0.143,0.335-0.215,0.708-0.215,1.119c0,0.412,0.072,0.785,0.215,1.12
					c0.143,0.335,0.338,0.62,0.584,0.855c0.246,0.235,0.531,0.418,0.855,0.546c0.323,0.129,0.669,0.193,1.037,0.193
					c0.419,0,0.773-0.061,1.064-0.182c0.29-0.121,0.538-0.278,0.744-0.469c0.148-0.132,0.275-0.3,0.381-0.502
					c0.106-0.202,0.189-0.428,0.248-0.678h-2.482V436.334z"/>
			</g>
			<g>
				<path style="fill:#FFFFFF;" d="M224.019,431.299c-0.006-1.224-0.959-2.121-2.189-2.14c-0.924-0.014-0.832,0.12-0.834-0.867
					c-0.003-1.097-0.007-2.194,0.003-3.292c0.003-0.379-0.112-0.691-0.362-0.976c-2.342-2.668-4.678-5.342-7.019-8.011
					c-0.12-0.137-0.275-0.244-0.414-0.366c-6.214,0-12.427,0-18.641,0c-0.794,0.293-1.14,0.868-1.138,1.709
					c0.01,3.748,0.004,7.496,0.004,11.243c0,0.556-0.003,0.589-0.55,0.551c-1.497-0.102-2.516,0.986-2.497,2.492
					c0.044,3.476,0.013,6.953,0.014,10.429c0.001,1.58,0.867,2.443,2.45,2.449c0.582,0.002,0.582,0.002,0.582,0.6
					c0,2.219-0.001,4.438,0.001,6.657c0.001,1.192,0.58,1.771,1.768,1.771c8.013,0.001,16.027,0.001,24.04,0
					c1.168,0,1.755-0.583,1.757-1.745c0.002-2.256,0-4.512,0.001-6.768c0-0.512,0.002-0.511,0.52-0.515
					c0.271-0.002,0.541,0.008,0.809-0.058c0.997-0.246,1.69-1.044,1.694-2.069C224.034,438.696,224.036,434.997,224.019,431.299z
					 M195.568,417.162c5.337,0,10.674,0,16.01,0c0.548,0,0.554,0.007,0.554,0.561c0.001,2.243-0.001,4.486,0.001,6.73
					c0.001,0.811,0.249,1.059,1.06,1.059c1.91,0.001,3.821,0,5.731,0.001c0.458,0,0.479,0.021,0.481,0.483
					c0.003,0.887,0.002,1.775,0,2.662c-0.001,0.477-0.024,0.498-0.504,0.499c-3.895,0.001-7.79,0-11.684,0
					c-3.882,0-7.765,0-11.647,0c-0.55,0-0.552-0.001-0.552-0.561c-0.001-3.624-0.001-7.247,0-10.871
					C195.018,417.166,195.022,417.162,195.568,417.162z M218.854,451.579c-3.883,0.001-7.766,0-11.65,0c-3.871,0-7.742,0-11.613,0
					c-0.572,0-0.574-0.002-0.574-0.579c-0.001-1.997-0.001-3.994,0.001-5.991c0-0.464,0.023-0.486,0.478-0.487
					c7.803-0.001,15.607-0.001,23.41,0c0.478,0,0.499,0.02,0.499,0.503c0.002,1.997,0.001,3.994,0,5.991
					C219.406,451.574,219.401,451.579,218.854,451.579z"/>
			</g>
			<g>
				<path style="fill:#FFFFFF;" d="M205.111,432.771h1.699l2.967,7.897h-1.644l-0.651-1.886h-3.044l-0.651,1.886h-1.643
					L205.111,432.771z M206.997,437.415l-0.706-1.974l-0.287-0.96h-0.088l-0.287,0.96l-0.706,1.974H206.997z"/>
				<path style="fill:#FFFFFF;" d="M211.331,434.536c-0.125,0-0.245-0.024-0.359-0.072c-0.114-0.048-0.213-0.114-0.298-0.199
					c-0.084-0.084-0.151-0.182-0.198-0.292c-0.048-0.11-0.072-0.232-0.072-0.364s0.024-0.254,0.072-0.364
					c0.048-0.11,0.114-0.208,0.198-0.292c0.084-0.084,0.184-0.151,0.298-0.198c0.114-0.048,0.233-0.072,0.359-0.072
					c0.257,0,0.478,0.09,0.662,0.27c0.184,0.181,0.276,0.399,0.276,0.656s-0.092,0.476-0.276,0.656
					C211.809,434.446,211.589,434.536,211.331,434.536z M210.615,440.669v-5.404h1.445v5.404H210.615z"/>
			</g>
			<g>
				<path style="fill:#FFFFFF;" d="M261.044,431.299c-0.006-1.224-0.959-2.121-2.189-2.14c-0.924-0.014-0.832,0.12-0.834-0.867
					c-0.003-1.097-0.007-2.194,0.003-3.292c0.003-0.379-0.112-0.691-0.362-0.976c-2.342-2.668-4.678-5.342-7.019-8.011
					c-0.12-0.137-0.275-0.244-0.414-0.366c-6.214,0-12.427,0-18.641,0c-0.794,0.293-1.14,0.868-1.138,1.709
					c0.01,3.748,0.004,7.496,0.004,11.243c0,0.556-0.003,0.589-0.55,0.551c-1.497-0.102-2.516,0.986-2.497,2.492
					c0.044,3.476,0.013,6.953,0.014,10.429c0.001,1.58,0.867,2.443,2.45,2.449c0.582,0.002,0.582,0.002,0.582,0.6
					c0,2.219-0.001,4.438,0.001,6.657c0.001,1.192,0.58,1.771,1.768,1.771c8.013,0.001,16.027,0.001,24.04,0
					c1.168,0,1.755-0.583,1.757-1.745c0.002-2.256,0-4.512,0.001-6.768c0-0.512,0.002-0.511,0.52-0.515
					c0.271-0.002,0.541,0.008,0.809-0.058c0.996-0.246,1.69-1.044,1.694-2.069C261.059,438.696,261.061,434.997,261.044,431.299z
					 M232.593,417.162c5.337,0,10.674,0,16.01,0c0.548,0,0.554,0.007,0.554,0.561c0.001,2.243-0.001,4.486,0.001,6.73
					c0.001,0.811,0.249,1.059,1.06,1.059c1.91,0.001,3.821,0,5.731,0.001c0.458,0,0.479,0.021,0.481,0.483
					c0.003,0.887,0.002,1.775,0,2.662c-0.001,0.477-0.024,0.498-0.504,0.499c-3.895,0.001-7.79,0-11.684,0
					c-3.882,0-7.765,0-11.647,0c-0.55,0-0.552-0.001-0.552-0.561c-0.001-3.624-0.001-7.247,0-10.871
					C232.042,417.166,232.047,417.162,232.593,417.162z M255.878,451.579c-3.883,0.001-7.766,0-11.65,0c-3.871,0-7.742,0-11.613,0
					c-0.572,0-0.574-0.002-0.574-0.579c-0.001-1.997-0.001-3.994,0.001-5.991c0-0.464,0.023-0.486,0.478-0.487
					c7.803-0.001,15.607-0.001,23.41,0c0.478,0,0.499,0.02,0.499,0.503c0.002,1.997,0.001,3.994,0,5.991
					C256.431,451.574,256.426,451.579,255.878,451.579z"/>
			</g>
			<g>
				<path style="fill:#FFFFFF;" d="M236.361,440.845c-0.338,0-0.662-0.048-0.971-0.143c-0.309-0.095-0.592-0.239-0.849-0.43
					c-0.257-0.191-0.481-0.425-0.673-0.7c-0.191-0.276-0.342-0.597-0.452-0.965l1.401-0.551c0.103,0.397,0.283,0.726,0.54,0.987
					c0.257,0.261,0.596,0.392,1.015,0.392c0.154,0,0.303-0.02,0.447-0.061c0.143-0.04,0.272-0.099,0.386-0.176
					s0.204-0.175,0.27-0.292c0.066-0.118,0.099-0.254,0.099-0.408c0-0.147-0.026-0.279-0.077-0.397
					c-0.051-0.117-0.138-0.227-0.259-0.331c-0.121-0.103-0.28-0.202-0.475-0.298c-0.195-0.095-0.435-0.195-0.722-0.298l-0.485-0.176
					c-0.213-0.073-0.429-0.173-0.645-0.298c-0.217-0.125-0.413-0.276-0.59-0.452c-0.177-0.176-0.322-0.384-0.436-0.623
					c-0.114-0.239-0.171-0.509-0.171-0.81c0-0.309,0.06-0.597,0.182-0.866c0.121-0.268,0.294-0.503,0.518-0.706
					c0.224-0.202,0.492-0.36,0.805-0.474s0.66-0.171,1.042-0.171c0.397,0,0.74,0.053,1.031,0.16
					c0.291,0.107,0.537,0.243,0.739,0.408c0.202,0.165,0.366,0.348,0.491,0.546c0.125,0.199,0.217,0.386,0.276,0.563l-1.312,0.551
					c-0.074-0.221-0.208-0.419-0.402-0.596c-0.195-0.176-0.462-0.265-0.8-0.265c-0.324,0-0.592,0.075-0.805,0.226
					c-0.213,0.151-0.32,0.348-0.32,0.59c0,0.235,0.103,0.436,0.309,0.601c0.206,0.165,0.533,0.325,0.982,0.48l0.497,0.165
					c0.316,0.111,0.605,0.237,0.866,0.381c0.261,0.143,0.485,0.314,0.673,0.513c0.187,0.199,0.331,0.425,0.43,0.678
					c0.1,0.254,0.149,0.546,0.149,0.877c0,0.412-0.083,0.767-0.248,1.064c-0.165,0.298-0.377,0.542-0.634,0.734
					c-0.258,0.191-0.548,0.335-0.872,0.43C236.986,440.797,236.67,440.845,236.361,440.845z"/>
				<path style="fill:#FFFFFF;" d="M239.516,432.771h1.61l1.633,4.754l0.287,1.015h0.088l0.309-1.015l1.699-4.754h1.61l-2.879,7.897
					h-1.566L239.516,432.771z"/>
				<path style="fill:#FFFFFF;" d="M251.097,436.334h3.871c0.022,0.089,0.04,0.195,0.055,0.32c0.015,0.125,0.023,0.25,0.023,0.375
					c0,0.507-0.078,0.985-0.232,1.434c-0.154,0.449-0.397,0.849-0.728,1.202c-0.353,0.375-0.775,0.666-1.268,0.871
					c-0.493,0.206-1.055,0.309-1.688,0.309c-0.574,0-1.114-0.103-1.621-0.309c-0.507-0.206-0.949-0.492-1.324-0.86
					c-0.375-0.367-0.673-0.803-0.894-1.307c-0.22-0.504-0.331-1.053-0.331-1.649c0-0.595,0.11-1.145,0.331-1.649
					c0.221-0.504,0.518-0.939,0.894-1.307c0.375-0.367,0.816-0.654,1.324-0.86c0.507-0.206,1.047-0.309,1.621-0.309
					c0.64,0,1.211,0.11,1.715,0.331c0.504,0.221,0.936,0.526,1.296,0.915l-1.026,1.004c-0.257-0.272-0.544-0.48-0.861-0.623
					c-0.316-0.143-0.694-0.215-1.136-0.215c-0.36,0-0.702,0.065-1.026,0.193c-0.323,0.129-0.607,0.311-0.849,0.546
					c-0.243,0.235-0.436,0.52-0.579,0.855c-0.143,0.335-0.215,0.708-0.215,1.119c0,0.412,0.072,0.785,0.215,1.12
					c0.143,0.335,0.338,0.62,0.585,0.855c0.246,0.235,0.531,0.418,0.854,0.546c0.324,0.129,0.669,0.193,1.037,0.193
					c0.419,0,0.774-0.061,1.064-0.182c0.29-0.121,0.539-0.278,0.745-0.469c0.147-0.132,0.274-0.3,0.38-0.502
					c0.107-0.202,0.189-0.428,0.248-0.678h-2.482V436.334z"/>
			</g>
			<g>
				<path style="fill:#FFFFFF;" d="M297.3,431.299c-0.006-1.224-0.959-2.121-2.189-2.14c-0.924-0.014-0.832,0.12-0.834-0.867
					c-0.003-1.097-0.007-2.194,0.003-3.292c0.003-0.379-0.112-0.691-0.362-0.976c-2.342-2.668-4.678-5.342-7.019-8.011
					c-0.12-0.137-0.275-0.244-0.414-0.366c-6.214,0-12.427,0-18.641,0c-0.794,0.293-1.14,0.868-1.138,1.709
					c0.01,3.748,0.004,7.496,0.004,11.243c0,0.556-0.003,0.589-0.55,0.551c-1.497-0.102-2.516,0.986-2.497,2.492
					c0.044,3.476,0.013,6.953,0.014,10.429c0.001,1.58,0.867,2.443,2.45,2.449c0.582,0.002,0.582,0.002,0.582,0.6
					c0,2.219-0.001,4.438,0.001,6.657c0.001,1.192,0.58,1.771,1.768,1.771c8.013,0.001,16.027,0.001,24.04,0
					c1.168,0,1.755-0.583,1.757-1.745c0.002-2.256,0-4.512,0.001-6.768c0-0.512,0.002-0.511,0.52-0.515
					c0.271-0.002,0.541,0.008,0.809-0.058c0.996-0.246,1.69-1.044,1.694-2.069C297.315,438.696,297.318,434.997,297.3,431.299z
					 M268.85,417.162c5.337,0,10.674,0,16.01,0c0.548,0,0.554,0.007,0.554,0.561c0.001,2.243-0.001,4.486,0.001,6.73
					c0.001,0.811,0.249,1.059,1.06,1.059c1.91,0.001,3.821,0,5.731,0.001c0.458,0,0.479,0.021,0.481,0.483
					c0.003,0.887,0.002,1.775,0,2.662c-0.001,0.477-0.024,0.498-0.504,0.499c-3.895,0.001-7.79,0-11.684,0
					c-3.882,0-7.765,0-11.647,0c-0.55,0-0.552-0.001-0.552-0.561c-0.001-3.624-0.001-7.247,0-10.871
					C268.299,417.166,268.303,417.162,268.85,417.162z M292.135,451.579c-3.883,0.001-7.766,0-11.65,0c-3.871,0-7.742,0-11.613,0
					c-0.572,0-0.574-0.002-0.574-0.579c-0.001-1.997-0.001-3.994,0.001-5.991c0-0.464,0.023-0.486,0.478-0.487
					c7.803-0.001,15.607-0.001,23.41,0c0.478,0,0.499,0.02,0.499,0.503c0.001,1.997,0.001,3.994,0,5.991
					C292.687,451.574,292.682,451.579,292.135,451.579z"/>
			</g>
			<g>
				<path style="fill:#FFFFFF;" d="M272.966,434.183v1.831h3.165v1.412h-3.165v1.831h3.518v1.412h-5.007v-7.897h5.007v1.412H272.966
					z"/>
				<path style="fill:#FFFFFF;" d="M277.852,440.669v-7.897h2.779c0.375,0,0.726,0.061,1.053,0.182
					c0.327,0.121,0.612,0.292,0.855,0.513c0.243,0.221,0.434,0.483,0.574,0.789c0.14,0.305,0.209,0.642,0.209,1.009
					c0,0.375-0.07,0.715-0.209,1.02c-0.14,0.305-0.331,0.568-0.574,0.789c-0.243,0.221-0.528,0.392-0.855,0.513
					c-0.327,0.121-0.678,0.182-1.053,0.182h-1.29v2.901H277.852z M280.653,436.356c0.389,0,0.684-0.111,0.882-0.331
					c0.199-0.22,0.298-0.474,0.298-0.761c0-0.14-0.024-0.276-0.072-0.408c-0.048-0.132-0.121-0.248-0.221-0.347
					c-0.099-0.099-0.222-0.178-0.37-0.237c-0.147-0.059-0.32-0.089-0.518-0.089h-1.312v2.173H280.653z"/>
				<path style="fill:#FFFFFF;" d="M286.797,440.845c-0.338,0-0.662-0.048-0.971-0.143c-0.309-0.095-0.592-0.239-0.849-0.43
					c-0.257-0.191-0.482-0.425-0.673-0.7c-0.191-0.276-0.342-0.597-0.452-0.965l1.401-0.551c0.103,0.397,0.283,0.726,0.541,0.987
					c0.257,0.261,0.595,0.392,1.015,0.392c0.154,0,0.303-0.02,0.447-0.061c0.143-0.04,0.272-0.099,0.386-0.176
					c0.114-0.077,0.204-0.175,0.27-0.292c0.066-0.118,0.1-0.254,0.1-0.408c0-0.147-0.026-0.279-0.077-0.397
					c-0.051-0.117-0.138-0.227-0.259-0.331c-0.121-0.103-0.279-0.202-0.474-0.298c-0.195-0.095-0.436-0.195-0.723-0.298
					l-0.485-0.176c-0.213-0.073-0.428-0.173-0.645-0.298c-0.217-0.125-0.414-0.276-0.59-0.452c-0.176-0.176-0.322-0.384-0.436-0.623
					c-0.114-0.239-0.171-0.509-0.171-0.81c0-0.309,0.061-0.597,0.182-0.866c0.121-0.268,0.294-0.503,0.518-0.706
					c0.224-0.202,0.493-0.36,0.805-0.474c0.312-0.114,0.66-0.171,1.042-0.171c0.397,0,0.741,0.053,1.031,0.16
					c0.29,0.107,0.537,0.243,0.739,0.408c0.202,0.165,0.365,0.348,0.491,0.546c0.125,0.199,0.217,0.386,0.276,0.563l-1.312,0.551
					c-0.074-0.221-0.208-0.419-0.403-0.596c-0.195-0.176-0.462-0.265-0.799-0.265c-0.324,0-0.592,0.075-0.805,0.226
					c-0.213,0.151-0.32,0.348-0.32,0.59c0,0.235,0.103,0.436,0.309,0.601c0.206,0.165,0.533,0.325,0.982,0.48l0.496,0.165
					c0.316,0.111,0.605,0.237,0.866,0.381c0.261,0.143,0.485,0.314,0.673,0.513c0.187,0.199,0.331,0.425,0.43,0.678
					c0.099,0.254,0.149,0.546,0.149,0.877c0,0.412-0.083,0.767-0.248,1.064c-0.165,0.298-0.377,0.542-0.634,0.734
					c-0.258,0.191-0.548,0.335-0.872,0.43C287.422,440.797,287.105,440.845,286.797,440.845z"/>
			</g>
			<g>
				<path style="fill:#FFFFFF;" d="M321.394,439.168l4.004-4.985h-3.827v-1.412h5.559v1.5l-3.96,4.985h4.004v1.412h-5.779V439.168z"
					/>
				<path style="fill:#FFFFFF;" d="M328.409,432.771h1.489v7.897h-1.489V432.771z"/>
				<path style="fill:#FFFFFF;" d="M331.486,440.669v-7.897h2.779c0.375,0,0.726,0.061,1.053,0.182
					c0.327,0.121,0.612,0.292,0.855,0.513s0.434,0.483,0.574,0.789c0.14,0.305,0.209,0.642,0.209,1.009
					c0,0.375-0.07,0.715-0.209,1.02c-0.14,0.305-0.331,0.568-0.574,0.789c-0.243,0.221-0.528,0.392-0.855,0.513
					c-0.327,0.121-0.678,0.182-1.053,0.182h-1.29v2.901H331.486z M334.288,436.356c0.389,0,0.684-0.111,0.882-0.331
					c0.199-0.22,0.298-0.474,0.298-0.761c0-0.14-0.024-0.276-0.072-0.408c-0.048-0.132-0.121-0.248-0.221-0.347
					c-0.099-0.099-0.222-0.178-0.37-0.237c-0.147-0.059-0.32-0.089-0.518-0.089h-1.312v2.173H334.288z"/>
			</g>
		</g>
		<g style="opacity:0.61;">
			<path style="fill:#FFFFFF;" d="M300.133,433.27h9.067v2.242h-9.067V433.27z M300.133,437.136h9.067v2.243h-9.067V437.136z"/>
		</g>
	</g>
	<g style="opacity:0.61;">
		<path style="fill:#FFFFFF;" d="M156.756,478.878h1.607c1.263,0,2.114,0.812,2.114,1.974c0,1.161-0.851,1.973-2.114,1.973h-1.607
			V478.878z M158.34,482.464c1.049,0,1.725-0.665,1.725-1.612c0-0.947-0.677-1.613-1.725-1.613h-1.167v3.225H158.34z"/>
		<path style="fill:#FFFFFF;" d="M165.139,480.851c0-1.15,0.879-2.007,2.075-2.007c1.184,0,2.069,0.851,2.069,2.007
			c0,1.156-0.885,2.007-2.069,2.007C166.019,482.858,165.139,482.002,165.139,480.851z M168.866,480.851
			c0-0.942-0.705-1.635-1.652-1.635c-0.953,0-1.663,0.693-1.663,1.635c0,0.941,0.71,1.635,1.663,1.635
			C168.162,482.486,168.866,481.793,168.866,480.851z"/>
		<path style="fill:#FFFFFF;" d="M179.596,478.878l-1.331,3.947h-0.44l-1.156-3.366l-1.161,3.366h-0.434l-1.331-3.947h0.429
			l1.139,3.394l1.178-3.394h0.389l1.161,3.411l1.156-3.411H179.596z"/>
		<path style="fill:#FFFFFF;" d="M187.731,478.878v3.947h-0.344l-2.537-3.202v3.202h-0.417v-3.947h0.344l2.543,3.203v-3.203H187.731
			z"/>
		<path style="fill:#FFFFFF;" d="M193.093,478.878h0.417v3.586h2.21v0.361h-2.627V478.878z"/>
		<path style="fill:#FFFFFF;" d="M200.061,480.851c0-1.15,0.879-2.007,2.075-2.007c1.184,0,2.069,0.851,2.069,2.007
			c0,1.156-0.885,2.007-2.069,2.007C200.941,482.858,200.061,482.002,200.061,480.851z M203.788,480.851
			c0-0.942-0.705-1.635-1.652-1.635c-0.953,0-1.663,0.693-1.663,1.635c0,0.941,0.71,1.635,1.663,1.635
			C203.083,482.486,203.788,481.793,203.788,480.851z"/>
		<path style="fill:#FFFFFF;" d="M211.636,481.77h-2.199l-0.474,1.054h-0.434l1.804-3.947h0.412l1.804,3.947h-0.44L211.636,481.77z
			 M211.484,481.432l-0.947-2.12l-0.947,2.12H211.484z"/>
		<path style="fill:#FFFFFF;" d="M217.28,478.878h1.607c1.263,0,2.114,0.812,2.114,1.974c0,1.161-0.851,1.973-2.114,1.973h-1.607
			V478.878z M218.864,482.464c1.049,0,1.725-0.665,1.725-1.612c0-0.947-0.677-1.613-1.725-1.613h-1.167v3.225H218.864z"/>
		<path style="fill:#FFFFFF;" d="M234.041,481.77h-2.199l-0.474,1.054h-0.434l1.804-3.947h0.412l1.804,3.947h-0.44L234.041,481.77z
			 M233.889,481.432l-0.947-2.12l-0.947,2.12H233.889z"/>
		<path style="fill:#FFFFFF;" d="M239.685,478.878h0.417v3.586h2.21v0.361h-2.627V478.878z"/>
		<path style="fill:#FFFFFF;" d="M247.082,478.878h0.417v3.586h2.21v0.361h-2.627V478.878z"/>
		<path style="fill:#FFFFFF;" d="M260.449,479.239v1.551h2.041v0.361h-2.041v1.675h-0.417v-3.947h2.706v0.361H260.449z"/>
		<path style="fill:#FFFFFF;" d="M267.678,478.878h0.417v3.947h-0.417V478.878z"/>
		<path style="fill:#FFFFFF;" d="M273.456,478.878h0.417v3.586h2.21v0.361h-2.627V478.878z"/>
		<path style="fill:#FFFFFF;" d="M283.644,482.464v0.361h-2.791v-3.947h2.706v0.361h-2.289v1.404h2.041v0.355h-2.041v1.466H283.644z
			"/>
		<path style="fill:#FFFFFF;" d="M294.672,479.239v1.551h2.041v0.361h-2.041v1.675h-0.417v-3.947h2.706v0.361H294.672z"/>
		<path style="fill:#FFFFFF;" d="M301.5,480.851c0-1.15,0.879-2.007,2.075-2.007c1.184,0,2.069,0.851,2.069,2.007
			c0,1.156-0.885,2.007-2.069,2.007C302.379,482.858,301.5,482.002,301.5,480.851z M305.226,480.851
			c0-0.942-0.705-1.635-1.652-1.635c-0.953,0-1.663,0.693-1.663,1.635c0,0.941,0.71,1.635,1.663,1.635
			C304.522,482.486,305.226,481.793,305.226,480.851z"/>
		<path style="fill:#FFFFFF;" d="M313.351,482.825l-0.902-1.269c-0.102,0.011-0.203,0.017-0.316,0.017h-1.06v1.252h-0.417v-3.947
			h1.477c1.004,0,1.613,0.507,1.613,1.353c0,0.62-0.327,1.054-0.902,1.24l0.964,1.353H313.351z M313.328,480.231
			c0-0.632-0.417-0.992-1.207-0.992h-1.048v1.979h1.048C312.911,481.218,313.328,480.851,313.328,480.231z"/>
		<path style="fill:#FFFFFF;" d="M322.907,478.878v3.947h-0.4v-3.158l-1.551,2.656h-0.197l-1.551-2.639v3.14h-0.4v-3.947h0.344
			l1.714,2.926l1.697-2.926H322.907z"/>
		<path style="fill:#FFFFFF;" d="M330.744,481.77h-2.199l-0.473,1.054h-0.434l1.804-3.947h0.411l1.804,3.947h-0.44L330.744,481.77z
			 M330.592,481.432l-0.947-2.12l-0.947,2.12H330.592z"/>
		<path style="fill:#FFFFFF;" d="M336.957,479.239h-1.387v-0.361h3.192v0.361h-1.387v3.586h-0.417V479.239z"/>
		<path style="fill:#FFFFFF;" d="M343.063,482.346l0.164-0.321c0.282,0.276,0.784,0.479,1.302,0.479c0.739,0,1.06-0.31,1.06-0.699
			c0-1.083-2.43-0.417-2.43-1.877c0-0.581,0.451-1.083,1.455-1.083c0.446,0,0.908,0.13,1.224,0.35l-0.141,0.333
			c-0.338-0.22-0.733-0.327-1.083-0.327c-0.722,0-1.043,0.321-1.043,0.716c0,1.083,2.43,0.429,2.43,1.866
			c0,0.581-0.462,1.077-1.472,1.077C343.937,482.858,343.356,482.65,343.063,482.346z"/>
	</g>
</g>
<g>
</g>
<g>
	<path style="fill:#3396CD;" d="M364.617,400.575l7.2,3.634c5.383,2.916,9.577,5.652,12.583,8.209
		c3.634,3.14,4.037,7.379,1.211,12.718c-2.871,5.383-7.222,8.344-13.054,8.882c-4.351,0.359-11.506,2.108-21.465,5.249
		c-11.035,3.454-18.078,5.45-21.129,5.989c-4.979,0.897-14.063-0.83-27.252-5.181c-10.407-3.454-18.953-6.864-25.637-10.228
		c-4.217-2.064-6.572-5.024-7.065-8.882c-0.449-3.095,0.269-6.348,2.153-9.757l17.361-7.94L364.617,400.575"/>
	<path style="fill:#2880AE;" d="M364.617,400.575l3.701,1.75l8.209,4.576c-8.972-1.48-18.549-2.086-28.733-1.817
		c-11.17,0.269-20.591,1.637-28.262,4.105c-8.837,2.781-14.22,6.729-16.149,11.843c-2.243,5.921,0.269,13.099,7.536,21.533
		c-6.011-1.66-12.561-3.858-19.648-6.594c-6.101-2.378-10.834-4.419-14.198-6.123c-4.217-2.064-6.572-5.024-7.065-8.882
		c-0.449-3.095,0.269-6.348,2.153-9.757l17.361-7.94L364.617,400.575"/>
	<path style="fill:#3396CD;" d="M372.692,347.147c9.824,11.125,13.548,19.357,11.17,24.695
		c-4.531,10.273-8.792,17.877-12.785,22.811c-7.312,8.972-16.217,14.041-26.714,15.207c-12.202,1.346-22.856,0.987-31.962-1.077
		l-10.901-2.422l-14.131-1.278l69.914-73.009l4.979,4.441L372.692,347.147"/>
	<path style="fill:#2880AE;" d="M362.262,336.515l10.43,10.632c9.824,11.125,13.548,19.357,11.17,24.695l-3.23,7.133
		c-13.189-1.391-26.826,0.695-40.912,6.258c-14.759,5.832-24.516,13.548-29.271,23.147l-10.026-2.221l-13.054-1.077l69.914-73.009
		L362.262,336.515"/>
	<path style="fill:#EEEEEF;" d="M394.561,421.905c3.723,3.723,7.155,8.164,10.295,13.323l-17.832-0.606
		c-5.518-0.718-9.981-1.794-13.391-3.23c1.032-4.217,2.871-7.918,5.518-11.103c2.422-2.961,4.508-4.396,6.258-4.307
		C387.697,416.118,390.748,418.092,394.561,421.905"/>
	<path style="fill:#EEEEEF;" d="M329.425,443.236c1.032-3.14,3.791-6.729,8.277-10.766c4.531-4.037,7.94-5.921,10.228-5.652
		c2.333,0.224,6.527,3.387,12.583,9.488c6.011,6.101,9.241,10.407,9.69,12.92c-5.069,0.224-12.157-0.314-21.263-1.615
		C339.608,446.264,333.103,444.806,329.425,443.236"/>
	<path style="fill:#3396CD;" d="M134.017,285.846c0.763-4.935,1.368-12.987,1.817-24.157c0.359-8.523,0.538-15.813,0.538-21.869
		c0-4.172,2.019-7.671,6.056-10.497c3.993-2.826,6.976-2.849,8.949-0.067c2.288,3.095,5.338,6.101,9.151,9.017
		c5.607,4.262,11.013,6.46,16.217,6.594c4.979,0.135,6.908,2.086,5.787,5.854c-0.538,1.929-1.593,3.813-3.163,5.652L134.017,285.846
		"/>
	<path style="fill:#2880AE;" d="M182.532,250.721c-0.538,1.929-1.593,3.813-3.163,5.652l-7.536,4.912
		c-5.069-3.858-10.116-9.106-15.14-15.746c-4.217-5.652-6.796-9.914-7.738-12.785c-0.628-2.019-0.516-3.32,0.336-3.903
		c0.807-0.583,1.503-0.449,2.086,0.404c2.288,3.095,5.338,6.101,9.151,9.017c5.607,4.262,11.013,6.46,16.217,6.594
		C181.725,245.002,183.654,246.953,182.532,250.721"/>
	<path style="fill:#3396CD;" d="M201.777,172.868c3.05,2.019,8.052,4.89,15.006,8.613c7.671,4.082,13.57,6.953,17.697,8.613
		l4.778,6.392l-37.278,40.104c-3.185,2.557-6.28,4.441-9.286,5.652c-5.921,2.467-8.299,0.404-7.133-6.191
		c1.211-6.819,1.794-16.486,1.75-29.002c-0.045-8.434-0.336-16.217-0.875-23.349c-0.314-4.037,1.503-7.335,5.45-9.892
		C195.698,171.342,198.996,171.028,201.777,172.868"/>
	<path style="fill:#2880AE;" d="M230.644,205.772c-5.787-3.948-12.067-9.196-18.841-15.746c-6.235-6.056-9.757-10.026-10.564-11.91
		c-0.628-1.436-0.763-2.759-0.404-3.97c0.314-1.077,0.628-1.503,0.942-1.278c3.05,2.019,8.052,4.89,15.006,8.613
		c7.671,4.082,13.57,6.953,17.697,8.613l4.778,6.392L230.644,205.772"/>
	<path style="fill:#FFFFFF;" d="M237.104,196.352L222.838,420.29c-16.733,0.135-31.985-2.714-45.757-8.546
		c-13.054-5.563-21.959-15.611-26.714-30.146c-3.948-12.067-4.89-26.714-2.826-43.94c1.66-13.906,4.979-27.97,9.959-42.19
		c4.351-12.292,8.299-20.613,11.843-24.964c2.736-3.364,14.377-15.723,34.923-37.076
		C222.704,214.363,233.65,202.004,237.104,196.352"/>
	<path style="fill:#3396CD;" d="M310.651,170.378c47.686-13.682,71.887-14.893,72.605-3.634c1.839,28.037,1.525,53.787-0.942,77.248
		c-4.441,42.796-15.409,78.235-32.904,106.317c-13.368,21.443-29.944,37.66-49.727,48.65
		c-20.007,11.125-45.622,18.235-76.844,21.331c-14.714,1.436-27.476-3.521-38.288-14.871c-9.465-9.869-16.576-23.506-21.331-40.912
		c-4.396-15.97-6.034-31.895-4.912-47.775c1.077-16.06,4.71-27.88,10.901-35.461l70.048-87.005l22.273-8.075
		C279.294,179.955,295.668,174.684,310.651,170.378"/>
	<path style="fill:#2880AE;" d="M307.959,216.336c4.351-6.505,10.811-13.592,19.379-21.263c7.806-6.998,16.082-13.368,24.83-19.11
		c8.658-5.697,15.835-9.488,21.533-11.372c6.146-1.974,9.331-1.256,9.555,2.153c1.839,28.037,1.525,53.787-0.942,77.248
		c-4.441,42.796-15.409,78.235-32.904,106.317c-12.875,20.591-28.643,36.359-47.304,47.304
		c-18.886,11.035-42.796,18.303-71.73,21.802c3.948-1.301,8.209-4.441,12.785-9.421c7.043-7.626,11.798-12.493,14.265-14.602
		c22.475-4.531,43.177-15.992,62.108-34.385c17.585-17.136,30.056-36.493,37.413-58.071c7.536-22.205,7.626-41.091,0.269-56.658
		C349.051,228.92,332.632,218.938,307.959,216.336"/>
	<path style="fill:#FFF1AC;" d="M229.096,382.945l16.486-1.615c23.82,6.146,44.77,6.303,62.848,0.471
		c5.921-1.884,11.82-4.553,17.697-8.007l10.834-6.662c-3.634,4.621-8.187,9.398-13.66,14.333
		c-8.837,7.94-18.594,14.826-29.271,20.658c-11.439,6.28-23.641,10.968-36.605,14.063c-10.273,2.467-22.362,4.194-36.269,5.181
		c-10.407,0.718-14.736-0.449-12.987-3.499c0.583-1.032,1.996-2.445,4.239-4.239l5.383-4.172c4.441-3.768,7.671-9.308,9.69-16.62
		L229.096,382.945"/>
	<path style="fill:#DCD096;" d="M221.156,421.367c-10.407,0.718-14.736-0.449-12.987-3.499c0.583-1.032,1.996-2.445,4.239-4.239
		l5.383-4.172c3.409-2.871,6.101-6.796,8.075-11.776c23.058,0.673,42.482-3.23,58.273-11.708
		c12.471-0.493,24.022-3.275,34.654-8.344c5.652-2.692,11.708-6.191,18.168-10.497c-3.634,4.621-8.187,9.398-13.66,14.333
		c-8.837,7.94-18.594,14.826-29.271,20.658c-11.439,6.28-23.641,10.968-36.605,14.063
		C247.152,418.653,235.063,420.38,221.156,421.367"/>
	<path style="fill:#3396CD;" d="M36.178,277.906c0.807-1.391,1.772-2.265,2.893-2.624c1.077-0.359,1.996-0.202,2.759,0.471
		c8.523,7.402,16.06,13.301,22.609,17.697c5.787,3.903,11.529,7.11,17.226,9.622l51.409,17.159l-8.007,82.766
		C90.66,388.418,65.83,367.67,50.578,340.754c-5.069-8.927-8.972-18.392-11.708-28.396l-3.566-17.024
		C33.733,287.439,34.025,281.629,36.178,277.906"/>
	<path style="fill:#2880AE;" d="M94.652,379.917c9.017,3.903,19.559,7.492,31.626,10.766l-1.211,12.314
		c-22.654-9.645-41.248-22.026-55.783-37.144C76.866,371.192,85.322,375.879,94.652,379.917"/>
	<path style="fill:#3396CD;" d="M92.903,285.51l3.634-15.746c0.583-2.557,2.692-3.207,6.325-1.951
		c3.544,1.211,5.787,3.073,6.729,5.585l5.787,15.207c3.14,8.254,5.181,13.48,6.123,15.678l-7.133,14.265
		c-8.523-1.121-16.329-3.297-23.417-6.527c-6.684-3.095-9.779-5.675-9.286-7.738C86.421,300.291,90.166,294.033,92.903,285.51"/>
	<path style="fill:#2880AE;" d="M109.591,273.398l5.787,15.207c3.14,8.254,5.181,13.48,6.123,15.678l-5.585,11.237
		c-3.23-6.28-5.787-13.727-7.671-22.34c-1.615-7.178-2.333-12.785-2.153-16.822c0.09-2.781,0.65-4.239,1.682-4.374
		C108.581,271.895,109.187,272.366,109.591,273.398"/>
	<path style="fill:#3396CD;" d="M407.009,267.678l0.202,14.938c0.493,10.632,1.548,17.697,3.163,21.196
		c0.942,2.019,0.202,3.589-2.221,4.71c-2.153,1.032-5.159,1.548-9.017,1.548c-3.858,0-7.335-0.538-10.43-1.615
		c-3.499-1.166-5.675-2.714-6.527-4.643c-2.198-4.845-2.961-11.753-2.288-20.725c0.583-7.761,1.525-12.516,2.826-14.265
		c1.346-1.794,5.361-2.49,12.045-2.086L407.009,267.678"/>
	<path style="fill:#2880AE;" d="M407.009,267.678l0.067,11.305c-5.742-4.8-10.318-2.557-13.727,6.729
		c-2.647,7.267-3.88,14.961-3.701,23.08c-4.037-1.211-6.527-2.871-7.469-4.979c-2.198-4.845-2.961-11.753-2.288-20.725
		c0.583-7.761,1.525-12.516,2.826-14.265c1.346-1.794,5.361-2.49,12.045-2.086L407.009,267.678"/>
	<path style="fill:#3396CD;" d="M412.056,240.83c1.301,4.665,1.705,9.533,1.211,14.602c-0.359,4.307-1.099,7.11-2.221,8.411
		c-1.525,1.75-5.585,2.871-12.179,3.364l-12.179,0.202l-5.114-16.688l1.548-32.03C398.643,219.948,408.288,227.327,412.056,240.83"
		/>
	<path style="fill:#2880AE;" d="M406.202,229.391c1.122,3.499-0.673,9.353-5.383,17.563c-3.903,6.774-8.658,13.435-14.265,19.985
		l-4.979-16.217l1.548-32.03C393.26,219.499,400.953,223.065,406.202,229.391"/>
	<path style="fill:#3396CD;" d="M416.968,328.642c-0.852,7.447-2.445,14.265-4.778,20.456c-6.28,16.643-15.97,24.09-29.069,22.34
		c-12.606-1.66-20.77-6.617-24.493-14.871c-1.436-3.185-2.445-7.379-3.028-12.583l-1.279-14.467l29.405-30.617
		c3.993-2.019,9.981-1.951,17.966,0.202c9.151,2.422,14.265,6.931,15.342,13.525C417.708,316.799,417.686,322.138,416.968,328.642"
		/>
	<path style="fill:#2880AE;" d="M399.944,298.699c-9.331,3.768-14.153,13.884-14.467,30.347
		c-0.314,15.387,2.983,29.002,9.891,40.845c-3.813,1.66-7.895,2.176-12.247,1.548c-12.606-1.66-20.77-6.617-24.493-14.871
		c-1.436-3.185-2.445-7.379-3.028-12.583l-1.279-14.467l29.405-30.617c1.436-0.718,3.634-1.099,6.594-1.144L399.944,298.699"/>
	<path style="fill:#EEEEEF;" d="M394.763,353.943c0.538,2.871-0.022,5.742-1.682,8.613c-1.615,2.692-3.342,4.082-5.181,4.172
		c-2.333,0.09-4.531-1.615-6.594-5.114c-1.974-3.544-2.355-6.213-1.144-8.007c1.346-2.019,3.925-3.14,7.738-3.364
		C391.936,349.973,394.224,351.207,394.763,353.943"/>
	<path style="fill:#C8C9CA;" d="M380.161,353.607c0.583-0.897,1.682-1.682,3.297-2.355c1.57-0.628,3.185-0.964,4.845-1.009
		c-3.454,2.736-3.252,8.142,0.606,16.217l-1.009,0.269c-2.333,0.09-4.531-1.615-6.594-5.114
		C379.331,358.07,378.95,355.401,380.161,353.607"/>
	<path style="fill:#C8C9CA;" d="M362.935,360.739c1.75,0,4.149,0.92,7.2,2.759c2.961,1.794,4.912,3.454,5.854,4.979
		c0.718,1.256-1.436,2.624-6.46,4.105l-7.806,1.884l-0.269-6.864C361.454,363.027,361.948,360.739,362.935,360.739"/>
	<path style="fill:#EEEEEF;" d="M384.871,369.42c1.077-1.391,3.589-2.736,7.536-4.037c3.768-1.211,6.527-1.682,8.277-1.413
		c1.391,0.224,0.247,2.4-3.432,6.527l-5.854,6.056l-3.836-2.826C385.14,371.663,384.243,370.227,384.871,369.42"/>
	<path style="fill:#C8C9CA;" d="M390.052,366.257c-0.807,1.525-0.92,3.163-0.336,4.912c0.404,1.166,1.278,2.647,2.624,4.441
		l-0.942,0.942l-3.836-2.826c-2.422-2.064-3.32-3.499-2.692-4.307C385.723,368.388,387.451,367.334,390.052,366.257"/>
	<path style="fill:#3396CD;" d="M262.539,31.156c3.768-3.454,6.841-5.136,9.219-5.047c1.391,0.045,3.028,1.009,4.912,2.893
		c1.211,1.211,1.48,3.095,0.807,5.652l-2.893,7.806c9.062,3.813,17.293,9.667,24.695,17.563
		c7.267,7.716,11.978,15.499,14.131,23.349l-64.598,39.162l-12.381-2.422c-7.806-20.456-6.819-40.329,2.961-59.618
		C244.64,50.222,252.356,40.442,262.539,31.156"/>
	<path style="fill:#2880AE;" d="M305.604,67.762c3.813,5.338,6.415,10.542,7.806,15.611l-64.598,39.162l-3.835-0.807
		c1.077-19.873,5.204-36.987,12.381-51.342c9.151-18.258,20.748-23.933,34.789-17.024C297.395,57.713,301.881,62.513,305.604,67.762
		"/>
	<path style="fill:#3396CD;" d="M353.716,76.106c0.404,8.882,0.852,16.015,1.346,21.398l3.903,6.123
		c3.05,5.114,5.764,10.206,8.142,15.275c7.581,16.284,10.273,29.405,8.075,39.364c-0.852,3.768-3.432,7.604-7.738,11.506
		c-5.877,4.755-10.564,8.77-14.063,12.045c-5.024,4.621-11.686,7.604-19.985,8.949l-23.955,1.009l-24.964,1.48
		c-9.106,1.705-16.777,5.181-23.013,10.43l-5.518,3.97c-6.37-0.583-11.753-4.217-16.149-10.901
		c-4.172-6.28-6.819-14.198-7.94-23.753c-1.166-9.735-0.561-19.357,1.817-28.867c2.647-10.363,7.088-19.088,13.323-26.176
		c7.716-8.748,19.222-16.284,34.519-22.609c4.037-1.66,9.398-3.656,16.082-5.989l10.161-3.835
		c3.275-1.794,8.972-6.213,17.091-13.256l16.082-14.265c2.961-2.647,5.675-3.477,8.142-2.49c2.198,0.897,3.477,2.893,3.835,5.989
		L353.716,76.106"/>
	<path style="fill:#2880AE;" d="M348.4,75.702c1.077-9.779,1.391-16.463,0.942-20.052c2.019,1.032,3.207,2.983,3.566,5.854
		l0.807,14.602c0.404,8.882,0.852,16.015,1.346,21.398l2.019,2.692l-2.624,5.383l-2.49,5.45l-5.383-9.69
		c-1.391-2.916-1.862-5.069-1.413-6.46C346.247,91.694,347.324,85.302,348.4,75.702"/>
	<path style="fill:#3396CD;" d="M251.235,121.526c2.826-0.09,3.836,1.974,3.028,6.191c-0.673,3.678-2.49,8.03-5.45,13.054
		c-2.916,5.024-5.787,8.725-8.613,11.103c-3.23,2.647-5.428,2.647-6.594,0c-4.89-10.811-8.905-18.572-12.045-23.282
		c-1.346-2.019-1.548-3.791-0.606-5.316c0.852-1.436,2.243-2.131,4.172-2.086l10.699,0.336
		C241.253,121.705,246.39,121.705,251.235,121.526"/>
	<path style="fill:#2880AE;" d="M251.235,125.294c3.499-0.135,3.611,4.621,0.336,14.265c-1.256,3.634-2.624,6.684-4.105,9.151
		c-1.525,2.602-2.602,3.477-3.23,2.624c-3.409-4.755-6.549-9.465-9.421-14.131c-4.755-7.716-6.415-11.753-4.979-12.112
		c1.256-0.314,4.127-0.336,8.613-0.067C244.192,125.294,248.453,125.384,251.235,125.294"/>
	<path style="fill:#FFFFFF;" d="M331.04,130.004l5.316,6.258c3.768,5.787,6.235,12.65,7.402,20.591
		c-6.46,4.351-14.108,7.335-22.946,8.949c-6.594,1.256-14.49,1.794-23.686,1.615c1.615-9.017,6.303-17.293,14.063-24.83
		C317.649,136.307,324.266,132.113,331.04,130.004"/>
	<path style="fill:#DBDCDC;" d="M337.163,137.608c-5.383-0.404-12.449,2.355-21.196,8.277c-9.645,6.549-15.634,13.727-17.966,21.533
		h-0.875c1.615-9.017,6.303-17.293,14.063-24.83c6.46-6.28,13.077-10.475,19.85-12.583l1.884,1.817
		C334.449,133.481,335.862,135.41,337.163,137.608"/>
	<path style="fill:#0D131A;" d="M310.718,143.058c5.249,0.942,8.658,4.307,10.228,10.093c1.525,5.563,0.65,9.847-2.624,12.852
		c-3.858,0.897-7.424,1.413-10.699,1.548l-10.497-0.135c0.807-4.576,2.669-9.331,5.585-14.265
		C305.358,148.621,308.027,145.257,310.718,143.058"/>
	<path style="fill:#FFF1AC;" d="M355.398,181.346c0.269,4.037-0.785,8.456-3.163,13.256c-4.8,9.69-13.839,16.531-27.118,20.523
		c-12.83,3.903-27.342,3.252-43.536-1.951c-5.069-1.66-10.004-3.656-14.804-5.989l-5.652-3.028
		c4.845-6.684,17.091-10.923,36.74-12.718c2.512-0.224,6.976-0.314,13.391-0.269c6.684,0.045,11.776-0.067,15.275-0.336
		c12.471-0.987,21.51-4.553,27.118-10.699L355.398,181.346"/>
	<path style="fill:#DCD096;" d="M355.398,181.346c0.269,4.037-0.785,8.456-3.163,13.256c-4.8,9.69-13.839,16.531-27.118,20.523
		c-8.748,2.647-18.325,3.163-28.733,1.548c4.486,0.449,8.949,0.09,13.391-1.077c5.293-1.391,9.622-3.746,12.987-7.065
		c3.723-3.678,4.643-6.774,2.759-9.286c-1.794-2.378-5.54-3.566-11.237-3.566c-9.645,0-19.895-0.74-30.751-2.221l14.333-2.019
		c2.512-0.224,6.976-0.314,13.391-0.269c6.684,0.045,11.776-0.067,15.275-0.336c12.471-0.987,21.51-4.553,27.118-10.699
		L355.398,181.346"/>
	<path style="fill:#3396CD;" d="M445.499,90.169c-0.404,8.389-1.166,15.858-2.288,22.407c-3.813,21.847-12.022,36.605-24.628,44.276
		c-11.349,6.863-20.164,10.856-26.445,11.977c-4.935,0.897-11.417,0.202-19.447-2.086c-3.544-0.987-7.2-4.082-10.968-9.286
		c-3.454-4.8-6.46-10.587-9.017-17.361c-2.557-6.864-4.127-13.346-4.71-19.447c-0.628-6.639,0.067-11.753,2.086-15.342l6.594-12.852
		c2.961-5.787,5.585-10.475,7.873-14.063c6.953-10.901,14.602-17.697,22.946-20.389c8.254-2.692,21.353-4.194,39.297-4.508
		c9.241-0.179,18.976-0.09,29.204,0.269c3.813,0,6.303,0.852,7.469,2.557c1.391,2.108,0.314,5.249-3.23,9.421
		c-2.647,3.14-5.787,5.787-9.421,7.94c-2.692,1.57-4.262,3.163-4.71,4.778C446.015,78.73,445.813,82.633,445.499,90.169"/>
	<path style="fill:#D8BA9D;" d="M404.452,69.242c9.779,0,16.576,3.409,20.389,10.228c4.262,7.536,4.531,18.729,0.807,33.577
		c-3.813,15.387-10.475,27.207-19.985,35.461c-9.376,8.164-19.424,11.17-30.146,9.017c0.583-11.17-1.839-20.77-7.267-28.8
		c-1.66-2.467-3.544-4.643-5.652-6.527l-2.624-2.086c0.359-2.916,2.019-7.155,4.979-12.718c3.05-5.787,6.684-11.439,10.901-16.957
		C386.665,76.307,396.198,69.242,404.452,69.242"/>
	<path style="fill:#B19981;" d="M418.179,72.607c3.858,2.333,6.617,5.832,8.277,10.497c-12.875,7.267-23.035,18.101-30.482,32.501
		c-7.402,14.31-10.116,28.306-8.142,41.989c-4.127,0.763-8.232,0.74-12.314-0.067c0.583-11.17-1.839-20.77-7.267-28.8
		c-1.66-2.467-3.544-4.643-5.652-6.527l-2.624-2.086c0.359-2.916,2.019-7.155,4.979-12.718c3.05-5.787,6.684-11.439,10.901-16.957
		c10.811-14.131,20.344-21.196,28.598-21.196C409.925,69.242,414.501,70.364,418.179,72.607"/>
	<path style="fill:#746544;" d="M394.493,87.881c4.307,1.794,7.626,5.002,9.959,9.622c3.903,7.85,5.293,16.979,4.172,27.387
		c-1.66,15.073-9.645,25.951-23.955,32.635l-9.286,0.606c0.852-3.858,0.83-8.389-0.067-13.592
		c-1.794-10.363-7.043-18.841-15.746-25.435c3.768-7.985,7.918-15.499,12.449-22.542c2.243-3.544,4.127-6.28,5.652-8.209
		C383.951,86.02,389.559,85.863,394.493,87.881"/>
	<path style="fill:#5A4E33;" d="M377.671,88.352c6.28-2.333,11.888-2.49,16.822-0.471c4.307,1.794,7.626,5.002,9.959,9.622
		l1.077,2.49c-9.914,13.951-16.262,27.723-19.043,41.316c-1.391,6.729-1.996,12.135-1.817,16.217l-9.286,0.606
		c0.852-3.858,0.83-8.389-0.067-13.592c-1.794-10.363-7.043-18.841-15.746-25.435c3.768-7.985,7.918-15.499,12.449-22.542
		C374.262,93.018,376.146,90.281,377.671,88.352"/>
	<path style="fill:#FFF1AC;" d="M337.432,281.943c3.14-4.082,8.075-8.635,14.804-13.66l16.553-12.247
		c5.787-4.665,9.69-9.017,11.708-13.054l3.835,14.333c2.333,11.529,2.916,22.273,1.75,32.232c-1.57,13.458-7.11,24.022-16.62,31.693
		c-3.454,2.781-7.11,4.912-10.968,6.392c-3.23,1.211-5.787,1.705-7.671,1.48c-4.486-0.493-8.591-2.781-12.314-6.864
		c-4.979-5.518-7.469-13.121-7.469-22.811C331.04,293.338,333.17,287.506,337.432,281.943"/>
	<path style="fill:#DCD096;" d="M380.497,242.983l3.835,14.333c2.333,11.529,2.916,22.273,1.75,32.232
		c-1.57,13.458-7.11,24.022-16.62,31.693c-3.454,2.781-7.11,4.912-10.968,6.392c-3.23,1.211-5.787,1.705-7.671,1.48
		c-3.14-0.359-6.235-1.727-9.286-4.105c7.133-0.493,12.92-3.678,17.361-9.555c3.813-5.024,6.392-11.574,7.738-19.648
		c1.166-7.043,1.256-13.929,0.269-20.658c-0.987-6.505-2.647-10.744-4.979-12.718c5.697-4.396,10.318-8.635,13.862-12.718
		C377.94,247.2,379.51,244.957,380.497,242.983"/>
	<path style="fill:#FFF1AC;" d="M298.943,288.471c2.512,3.05,4.037,6.706,4.576,10.968c0.628,4.979-0.09,9.847-2.153,14.602
		c-2.064,4.845-5.226,8.77-9.488,11.776c-10.138,7.222-22.744,7.379-37.817,0.471c-2.378-1.839-4.508-4.778-6.392-8.815
		c-3.813-8.075-4.553-17.518-2.221-28.329c2.378-10.811,6.168-20.366,11.372-28.665c2.602-4.172,4.957-7.245,7.065-9.219
		c6.146,10.677,14.759,20.321,25.839,28.934C294.3,283.783,297.373,286.542,298.943,288.471"/>
	<path style="fill:#DCD096;" d="M248.408,318.953c-3.589-6.684-4.912-14.49-3.97-23.417c6.549,8.882,14.445,14.871,23.686,17.966
		c12.336,4.127,24.157,1.323,35.461-8.411c-0.852,10.049-5.607,17.495-14.265,22.34c-9.869,5.473-21.622,5.092-35.26-1.144
		C252.087,324.717,250.203,322.272,248.408,318.953"/>
	<path style="fill:#C8C9CA;" d="M276.737,354.145c-0.493,1.436-3.97,3.275-10.43,5.518l5.854-14.063
		c1.301,1.301,2.422,2.736,3.364,4.307C276.647,351.79,277.051,353.203,276.737,354.145"/>
	<path style="fill:#C8C9CA;" d="M266.105,360.201l2.893,14.669l-5.72,1.211l-10.968,0.673L266.105,360.201"/>
	<path style="fill:#C8C9CA;" d="M246.793,379.177l-2.759,6.325c-5.832-1.166-10.407-2.467-13.727-3.903L246.793,379.177"/>
	<path style="fill:#3396CD;" d="M222.367,423.386c2.871,4.71,3.544,8.837,2.019,12.381c-2.916,6.819-6.729,12.202-11.439,16.149
		c-6.819,5.697-15.23,8.075-25.233,7.133l-33.847-2.422l-23.349-1.144c-8.703-0.314-12.449-4.351-11.237-12.112
		c1.211-7.626,6.841-17.002,16.89-28.127l80.478-6.325C216.827,412.687,218.734,417.509,222.367,423.386"/>
	<path style="fill:#2880AE;" d="M216.648,408.918c0.179,3.768,2.086,8.591,5.72,14.467c2.871,4.71,3.544,8.837,2.019,12.381
		c-1.391,3.32-3.835,7.021-7.335,11.103c-3.903,4.576-7.806,8.03-11.708,10.363c-1.346-10.004-10.116-18.751-26.31-26.243
		c-12.695-5.832-27.813-10.138-45.353-12.92l2.49-2.826L216.648,408.918"/>
	<path style="fill:#EEEEEF;" d="M141.822,449.157c-0.807,1.839-4.105,4.441-9.892,7.806c-4.71,2.692-9.421,5.024-14.131,6.998
		c-0.987-3.948-1.391-8.142-1.211-12.583c0.179-6.056,1.525-10.789,4.037-14.198c2.019-2.781,4.531-4.284,7.536-4.508
		c2.692-0.224,5.338,0.516,7.94,2.221c2.512,1.705,4.329,3.835,5.45,6.392C142.809,444.066,142.899,446.69,141.822,449.157"/>
	<path style="fill:#EEEEEF;" d="M197.605,441.486c2.288,1.032,4.239,2.579,5.854,4.643c1.436,1.884,2.153,3.499,2.153,4.845
		c0,2.512-1.525,6.123-4.576,10.834c-3.095,4.8-6.213,8.232-9.353,10.295c-4.082-3.409-7.492-8.03-10.228-13.862
		c-2.647-5.607-3.275-9.219-1.884-10.834C185.403,440.634,191.414,438.66,197.605,441.486"/>
	<path style="fill:#C8C9CA;" d="M141.822,449.157c-0.807,1.75-3.858,4.217-9.151,7.402c-4.351,2.512-8.905,4.822-13.66,6.931
		c7.761-6.325,14.422-15.006,19.985-26.041c1.57,1.705,2.624,3.566,3.163,5.585C142.742,445.187,142.63,447.228,141.822,449.157"/>
	<path style="fill:#C8C9CA;" d="M205.612,450.974c0,2.243-1.256,5.428-3.768,9.555c-2.557,4.172-5.293,7.536-8.209,10.093
		c1.57-3.992,2.557-8.77,2.961-14.333c0.269-3.185,0.381-8.209,0.336-15.073c2.422,0.942,4.508,2.49,6.258,4.643
		C204.805,447.834,205.612,449.539,205.612,450.974"/>
	<path style="fill:#3396CD;" d="M173.919,257.046l53.293,117.958c1.301,12.561-0.807,22.362-6.325,29.405
		c-7.357,9.331-21.488,15.768-42.392,19.312c-19.648,3.364-36.179-2.086-49.592-16.351c-7.626-8.164-13.929-18.953-18.908-32.366
		c-2.422-6.594-3.477-11.978-3.163-16.149c0.314-3.948,2.086-9.151,5.316-15.611c-5.652-17.271,1.817-36.045,22.407-56.321
		C144.693,276.964,157.815,267.005,173.919,257.046"/>
	<path style="fill:#2880AE;" d="M168.94,260.142l5.787-3.432c9.465,2.064,21.062,22.385,34.789,60.964
		c6.864,19.334,12.763,38.445,17.697,57.33c1.211,11.574-0.449,20.725-4.979,27.454c-5.877,8.882-17.293,15.342-34.25,19.379
		c0.897-2.736,0.224-6.594-2.019-11.574c-2.108-4.71-5.271-9.645-9.488-14.804c-9.824-12.022-19.447-19.2-28.867-21.533
		c5.069,0.269,9.959-3.701,14.669-11.91c4.441-7.761,7.963-17.809,10.564-30.146c2.602-12.695,3.678-25.233,3.23-37.615
		C175.534,280.665,173.157,269.293,168.94,260.142"/>
	<path style="fill:#3396CD;" d="M184.147,268.418l68.433-1.548c-3.05,3.903-5.428,10.34-7.133,19.312
		c-1.974,10.452-1.682,19.357,0.875,26.714c1.346,3.858-1.144,7.447-7.469,10.766c-5.832,3.05-13.256,5.114-22.273,6.191
		c-9.331,1.166-17.338,0.875-24.022-0.875c-7.626-2.019-11.843-5.585-12.65-10.699c-1.48-9.106-1.211-20.142,0.807-33.106
		L184.147,268.418"/>
	<path style="fill:#2880AE;" d="M183.071,275.147l1.077-6.729l68.433-1.548c-3.05,3.903-5.428,10.34-7.133,19.312
		c-1.974,10.452-1.682,19.357,0.875,26.714c0.942,2.736-0.135,5.383-3.23,7.94c-2.826,2.378-7.021,4.419-12.583,6.123
		c6.774-15.297,6.46-27.409-0.942-36.336C221.672,281.069,206.173,275.91,183.071,275.147"/>
	<path style="fill:#3396CD;" d="M229.298,301.457c9.69,3.05,16.777,7.806,21.263,14.265c1.256,1.839,3.05,5.45,5.383,10.834
		c1.525,3.634,4.194,7.088,8.007,10.363l5.787,5.181c1.346,1.525,2.064,3.073,2.153,4.643c0.135,2.736-2.512,8.86-7.94,18.37
		c-4.8,8.389-12.269,13.615-22.407,15.678l-11.977,1.144l-9.421,0.135c-4.037,0.314-10.542-5.024-19.514-16.015
		c-9.555-12.606-15.746-20.456-18.572-23.551c-4.082-4.396-5.697-11.708-4.845-21.936c0.852-10.004,3.163-15.634,6.931-16.89
		C200.969,298.071,216.02,297.33,229.298,301.457"/>
	<path style="fill:#2880AE;" d="M228.693,301.323c5.249,1.57,9.914,3.813,13.996,6.729c3.409,2.422,6.034,4.979,7.873,7.671
		c1.256,1.839,3.05,5.45,5.383,10.834c1.525,3.634,4.194,7.088,8.007,10.363l5.787,5.181c1.346,1.525,2.064,3.073,2.153,4.643
		c0.135,2.736-2.512,8.86-7.94,18.37c-3.32,5.787-7.873,10.049-13.66,12.785c-4.396,2.064-9.712,3.32-15.948,3.768
		c14.624-7.94,20.658-19.447,18.101-34.519C250.382,334.945,242.465,319.67,228.693,301.323"/>
	<path style="fill:#3396CD;" d="M254.801,225.353c5.069,4.127,8.052,9.892,8.949,17.293c0.763,6.101,0.135,11.148-1.884,15.14
		c-3.364,6.729-12.045,11.035-26.041,12.92l-36.134,1.211c-11.035,0-18.213-1.234-21.533-3.701
		c-3.723-2.781-5.249-8.613-4.576-17.495c0.628-8.164,7.312-17.069,20.052-26.714c10.542-8.03,19.85-13.234,27.925-15.611
		c5.159-1.525,10.789-0.292,16.89,3.701L254.801,225.353"/>
	<path style="fill:#2880AE;" d="M254.801,225.353c5.069,4.127,8.052,9.892,8.949,17.293c0.763,6.101,0.135,11.148-1.884,15.14
		c-3.364,6.729-12.045,11.035-26.041,12.92l-36.134,1.211l19.581-5.72c7.178-2.422,12.987-5.092,17.428-8.007
		c11.484-7.671,16.688-19.312,15.611-34.923L254.801,225.353"/>
	<path style="fill:#FFFFFF;" d="M304.46,153.152c1.615,0,2.983,0.65,4.105,1.951c1.121,1.256,1.682,2.804,1.682,4.643
		s-0.561,3.387-1.682,4.643s-2.49,1.884-4.105,1.884c-1.57,0-2.938-0.628-4.105-1.884c-1.122-1.301-1.682-2.849-1.682-4.643
		c0-1.794,0.561-3.342,1.682-4.643C301.522,153.802,302.89,153.152,304.46,153.152"/>
	<path style="fill:#0D131A;" d="M267.72,422.78c-0.673-2.198-0.561-4.576,0.336-7.133l2.624-5.249h3.701
		c-0.897,1.66-1.592,3.409-2.086,5.249c-0.763,2.647-0.875,4.845-0.336,6.594c0.807,2.557,2.759,4.598,5.854,6.123
		c7.088,3.544,15.791,6.998,26.108,10.363c12.561,4.127,21.129,5.764,25.704,4.912l1.548-0.336l4.576,2.826l-4.912,1.278
		c-5.338,0.942-15.028-0.987-29.069-5.787c-10.363-3.544-18.863-6.953-25.503-10.228c-2.064-1.032-3.836-2.265-5.316-3.701
		C269.335,426.077,268.259,424.44,267.72,422.78"/>
	<path style="fill:#0D131A;" d="M381.708,433.479c-1.839,1.032-4.822,1.772-8.949,2.221c-2.692,0.179-6.078,0.83-10.161,1.951
		l-1.211-1.413l-1.346-1.413c4.89-1.391,9.017-2.243,12.381-2.557l2.086-0.336C375.495,432.828,377.895,433.344,381.708,433.479"/>
	<path style="fill:#0D131A;" d="M365.492,400.44l7.469,3.095c5.293,2.467,9.465,5.002,12.516,7.604
		c1.749,1.48,2.826,3.364,3.23,5.652c-0.807-0.538-1.996-0.673-3.566-0.404c-0.404-1.032-1.009-1.929-1.817-2.692
		c-2.916-2.467-6.998-5.136-12.247-8.007c-4.351-2.378-6.729-3.566-7.133-3.566L365.492,400.44"/>
	<path style="fill:#0D131A;" d="M371.346,391.019c6.191-7.761,9.824-14.265,10.901-19.514l2.893,0.673
		c-1.256,6.235-4.89,13.301-10.901,21.196c-8.658,11.349-18.841,17.675-30.549,18.976c-8.344,0.942-15.634,1.009-21.869,0.202
		l-13.592-2.961l-10.699-2.355c-4.8-0.852-9.241-1.278-13.323-1.278l2.826-1.884c8.523,0,15.858,0.74,22.004,2.221
		c5.563,1.346,10.116,2.176,13.66,2.49l21.465-0.606C353.985,407.102,363.047,401.382,371.346,391.019"/>
	<path style="fill:#0D131A;" d="M361.387,362.556l0.202,1.413l0.135,1.211l-11.641-0.538c-3.05-0.538-5.652-1.279-7.806-2.221
		l1.009-2.288c1.57,0.673,3.768,1.256,6.594,1.75L361.387,362.556"/>
	<path style="fill:#0D131A;" d="M385.275,417.33c-1.615-0.135-3.88,1.839-6.796,5.921c-2.826,3.992-3.903,6.415-3.23,7.267
		c0.628,0.763,5.159,1.66,13.592,2.692l13.592,0.807c0.628-0.583-1.637-3.454-6.796-8.613
		C390.389,420.201,386.935,417.509,385.275,417.33 M377.133,420.088c3.185-3.813,6.325-5.54,9.421-5.181
		c2.512,0.269,6.011,2.512,10.497,6.729c4.262,4.037,7.469,7.963,9.622,11.776c0.718,1.211,0.964,2.086,0.74,2.624
		c-0.179,0.449-0.807,0.718-1.884,0.807c-5.787,0.493-11.753,0.404-17.899-0.269c-5.966-0.673-10.587-1.705-13.862-3.095
		c-1.077-0.224-1.57-1.032-1.48-2.422C372.512,427.333,374.127,423.677,377.133,420.088"/>
	<path style="fill:#0D131A;" d="M347.795,428.163c-1.929-0.224-5.204,1.862-9.824,6.258c-4.621,4.351-6.505,7.155-5.652,8.411
		c0.718,1.121,6.796,2.378,18.235,3.768l17.697,1.279c0.538-0.628-1.996-3.858-7.604-9.69
		C354.86,432.088,350.576,428.746,347.795,428.163 M328.146,442.832c1.974-4.665,5.092-8.837,9.353-12.516
		c4.217-3.589,7.738-5.204,10.564-4.845c2.871,0.314,6.819,2.714,11.843,7.2c5.518,4.935,9.645,10.228,12.381,15.88
		c0.538,1.122,0.695,1.862,0.471,2.221c-0.314,0.404-1.189,0.583-2.624,0.538l-22.677-1.884c-8.613-1.166-14.804-2.826-18.572-4.979
		C327.989,444.357,327.742,443.819,328.146,442.832"/>
	<path style="fill:#0D131A;" d="M140.544,233.226c-1.75,2.153-2.624,4.351-2.624,6.594c0,6.011-0.179,13.278-0.538,21.802
		c-0.449,11.305-1.077,19.469-1.884,24.493l-3.768,2.759c0.718-4.531,1.278-12.695,1.682-24.493l0.673-22.004
		c0.224-4.217,1.503-7.828,3.835-10.834c1.974-2.557,4.329-4.284,7.065-5.181c2.826-0.942,5.383-0.269,7.671,2.019
		c1.839,1.884,5.45,4.598,10.834,8.142c5.742,3.768,10.049,6.146,12.92,7.133l-1.75,3.23c-4.441-1.121-9.421-3.746-14.938-7.873
		c-4.621-3.454-7.806-6.415-9.555-8.882c-0.897-1.256-2.31-1.548-4.239-0.875C143.953,229.884,142.159,231.207,140.544,233.226"/>
	<path style="fill:#0D131A;" d="M197.538,170.311c1.974-0.09,3.678,0.336,5.114,1.278c2.512,1.705,7.424,4.396,14.736,8.075
		c7.267,3.634,13.189,6.37,17.764,8.209l3.432,6.662c-4.172-1.66-10.968-5.092-20.389-10.295
		c-8.299-4.576-14.063-7.94-17.293-10.093c-0.897-0.628-2.041-0.875-3.432-0.74c-1.436,0.09-2.849,0.561-4.239,1.413
		c-1.525,0.852-2.781,1.996-3.768,3.432c-1.121,1.66-1.615,3.432-1.48,5.316l1.48,20.254c0.449,10.407,0.179,18.751-0.807,25.032
		l-4.441,2.624c1.032-6.325,1.525-15.05,1.48-26.176c-0.045-7.536-0.292-14.691-0.74-21.465c-0.179-2.557,0.449-4.935,1.884-7.133
		c1.211-1.839,2.826-3.364,4.845-4.576C193.657,171.006,195.609,170.4,197.538,170.311"/>
	<path style="fill:#0D131A;" d="M238.584,197.294c-2.692,4.262-5.45,8.052-8.277,11.372l-4.643-0.336
		c5.697-6.056,9.488-10.564,11.372-13.525L238.584,197.294"/>
	<path style="fill:#0D131A;" d="M135.228,414.503l2.153,1.884c-5.607,6.191-9.869,12.045-12.785,17.562
		c-3.14,0.897-5.518,3.544-7.133,7.94c-0.583-2.557,1.077-6.684,4.979-12.381C125.897,424.485,130.159,419.483,135.228,414.503"/>
	<path style="fill:#0D131A;" d="M133.882,457.367c1.66-0.942,3.028-2.019,4.105-3.23l42.123,2.557
		c1.525,0.987,2.512,2.198,2.961,3.634L133.882,457.367"/>
	<path style="fill:#0D131A;" d="M220.281,423.184c-1.48-2.333-2.535-4.239-3.163-5.72c-0.942-2.288-1.48-4.845-1.615-7.671
		l2.288-1.009c0.135,2.243,0.785,4.396,1.951,6.46l3.432,5.114c2.153,3.499,3.454,5.877,3.903,7.133
		c1.032,2.916,0.964,5.72-0.202,8.411c-2.198,5.249-5.092,9.802-8.68,13.66c-4.396,4.665-9.51,7.918-15.342,9.757
		c1.032-1.48,1.75-2.983,2.153-4.508c7.761-3.454,13.705-10.026,17.832-19.716c0.897-2.064,1.054-4.082,0.471-6.056
		C222.906,427.737,221.896,425.786,220.281,423.184"/>
	<path style="fill:#0D131A;" d="M119.549,436.372c1.974-2.692,4.441-4.329,7.402-4.912c2.961-0.583,5.944,0,8.949,1.75
		c3.095,1.75,5.45,4.194,7.065,7.335c1.839,3.409,2.108,6.572,0.807,9.488c-0.987,2.288-5.024,5.607-12.112,9.959
		c-6.101,3.723-10.363,5.966-12.785,6.729l-2.961,0.269c-0.359-0.224-0.695-0.942-1.009-2.153
		c-1.166-5.159-1.413-10.116-0.74-14.871C114.929,444.761,116.723,440.23,119.549,436.372 M139.265,439.871
		c-1.256-1.794-2.826-3.23-4.71-4.306c-1.705-1.032-3.499-1.57-5.383-1.615c-2.961-0.09-5.45,1.234-7.469,3.97
		c-2.557,3.589-3.835,8.635-3.835,15.14c0,1.839,0.135,3.791,0.404,5.854c0.269,2.243,0.561,3.454,0.875,3.634
		c0.404,0.224,3.88-1.682,10.43-5.72c6.729-4.127,10.385-6.863,10.968-8.209c0.449-0.942,0.673-1.951,0.673-3.028
		C141.217,443.662,140.566,441.756,139.265,439.871"/>
	<path style="fill:#0D131A;" d="M198.749,461.942c3.678-5.383,5.518-9.039,5.518-10.968c0-1.166-0.74-2.624-2.221-4.374
		c-1.66-1.974-3.611-3.387-5.854-4.239c-5.293-1.929-10.497,0.045-15.611,5.921c-0.224,0.449-0.336,0.987-0.336,1.615v0.74
		c0.179,2.333,1.951,6.123,5.316,11.372c3.23,5.114,5.338,7.693,6.325,7.738C192.872,469.838,195.16,467.236,198.749,461.942
		 M197.134,439.871c2.647,0.987,5.069,2.736,7.267,5.249c2.064,2.422,3.095,4.531,3.095,6.325c0,2.602-1.727,6.594-5.181,11.978
		c-3.185,4.979-5.989,8.456-8.411,10.43c-1.032,0.807-1.929,1.189-2.692,1.144c-0.628-0.045-1.368-0.449-2.221-1.211
		c-2.333-2.198-4.845-5.742-7.536-10.632c-2.781-5.069-4.284-9.039-4.508-11.91c-0.224-1.884,0.09-3.32,0.942-4.307
		c3.454-3.948,7.178-6.415,11.17-7.402L197.134,439.871"/>
	<path style="fill:#0D131A;" d="M222.906,421.973l-2.826-2.355c24.762-0.314,49.076-6.998,72.942-20.052
		c23.91-13.099,42.213-29.809,54.908-50.131c4.396-7.043,8.321-14.624,11.776-22.744l2.355-0.336l2.221-0.538
		c-2.512,6.28-4.8,11.484-6.863,15.611c-2.557,5.159-5.383,9.959-8.478,14.4c-13.996,20.232-32.187,36.246-54.572,48.045
		C271.937,415.625,248.117,421.658,222.906,421.973"/>
	<path style="fill:#0D131A;" d="M384.871,168.897c0.583,13.413,0.875,24.202,0.875,32.366c0.045,16.957-0.695,32.972-2.221,48.045
		c-0.538-2.378-1.75-4.015-3.634-4.912c1.929-17.495,2.781-35.394,2.557-53.697l-0.942-22.744L384.871,168.897"/>
	<path style="fill:#0D131A;" d="M245.313,382.406l0.538-2.153c25.839,6.729,49.031,5.652,69.577-3.23
		c14.624-6.325,25.009-14.534,31.155-24.628l1.884,1.144c-2.467,4.082-6.168,8.209-11.103,12.381
		c-6.101,5.249-13.054,9.578-20.86,12.987C295.421,388.148,271.691,389.315,245.313,382.406"/>
	<path style="fill:#0D131A;" d="M218.936,407.034l1.077-1.884c7.626,4.396,17.428,6.706,29.405,6.931
		c9.062,0.135,18.011-0.83,26.848-2.893l-4.979,2.893c-8.658,2.064-16.934,2.916-24.83,2.557
		C236.094,414.189,226.921,411.655,218.936,407.034"/>
	<path style="fill:#0D131A;" d="M35.976,273.263c0.763-0.763,1.66-1.166,2.692-1.211c1.077-0.09,1.974,0.202,2.692,0.875
		c8.792,7.626,16.351,13.749,22.676,18.37c7.447,5.428,13.974,9.398,19.581,11.91l-2.624,1.413
		c-6.101-2.692-12.292-6.191-18.572-10.497c-6.235-4.262-13.458-9.959-21.667-17.091c-0.404-0.359-0.92-0.359-1.548,0
		c-1.121,0.673-1.884,2.714-2.288,6.123c-0.493,3.992-0.314,8.837,0.538,14.534c3.454,22.968,12.65,43.289,27.589,60.964
		c14.938,17.72,34.946,31.895,60.022,42.527l3.634,6.796c-28.217-11.798-50.131-26.736-65.742-44.815
		c-15.566-17.989-25.256-39.476-29.069-64.463c-1.032-6.774-1.211-12.673-0.538-17.697C33.89,277.054,34.765,274.474,35.976,273.263
		"/>
	<path style="fill:#0D131A;" d="M59.931,325.009c2.736-5.204,6.37-9.421,10.901-12.65c3.768-2.647,7.94-4.486,12.516-5.518
		l2.019,0.942c-3.723,0.314-7.828,2.131-12.314,5.45c-4.8,3.544-8.523,7.806-11.17,12.785c-2.198,4.217-3.409,8.905-3.634,14.063
		c-0.269,6.639,1.256,12.897,4.576,18.774l-1.75-1.077c-3.544-6.28-5.181-12.583-4.912-18.908
		C56.342,334.115,57.598,329.495,59.931,325.009"/>
	<path style="fill:#0D131A;" d="M106.092,267.14c2.243,1.301,3.903,3.207,4.979,5.72l12.045,27.723l-3.028,4.306
		c-2.064-4.71-6.034-15.05-11.91-31.02c-0.449-1.211-1.548-2.355-3.297-3.432c-1.705-0.987-3.409-1.525-5.114-1.615
		c-0.628-0.045-1.189,0.583-1.682,1.884l-0.538,1.884c-1.256,6.549-2.579,11.776-3.97,15.678
		c-2.602,7.222-6.034,12.74-10.295,16.553c0.359,1.57,3.477,3.634,9.353,6.191c6.729,2.961,14.041,4.979,21.936,6.056l-0.538,2.49
		c-4.755,0.179-11.103-1.301-19.043-4.441c-7.716-3.05-12.404-5.787-14.063-8.209c-0.718-0.987-0.964-1.974-0.74-2.961l0.135-0.471
		l0.336-0.336c4.127-3.454,7.447-8.703,9.959-15.746c1.391-3.813,2.692-8.927,3.903-15.342c0.045-0.897,0.292-1.839,0.74-2.826
		c0.897-1.974,2.333-3.118,4.307-3.432C101.763,265.435,103.938,265.884,106.092,267.14"/>
	<path style="fill:#0D131A;" d="M404.25,280.329c-0.045-4.531,0.269-8.927,0.942-13.189l3.364-1.211
		c-0.493,2.916-0.538,7.828-0.135,14.736c0.538,9.196,1.929,16.441,4.172,21.734l-4.643-1.749
		C405.574,295.087,404.34,288.314,404.25,280.329"/>
	<path style="fill:#0D131A;" d="M382.987,220.374l0.269-3.432c8.209,0.673,15.14,3.163,20.792,7.469
		c4.531,3.454,7.783,7.581,9.757,12.381c2.198,5.383,2.871,11.237,2.019,17.562c-0.673,5.159-1.839,8.703-3.499,10.632
		c-1.48,1.705-4.867,2.871-10.161,3.499l-14.938,0.471l-0.74-3.163l17.091-0.942c3.409-0.538,5.473-1.234,6.191-2.086
		c1.032-1.256,1.682-4.262,1.951-9.017c0.314-5.921-0.538-11.305-2.557-16.149C404.856,227.192,396.131,221.45,382.987,220.374"/>
	<path style="fill:#0D131A;" d="M363.271,360.807c-1.525,0.269-2.288,1.211-2.288,2.826c-2.198-2.826-3.791-5.63-4.778-8.411
		c-1.256-3.454-1.727-7.2-1.413-11.237l1.009-2.49l0.942-2.557c0.449,5.204,1.032,9.263,1.75,12.179
		C359.525,355.065,361.118,358.294,363.271,360.807"/>
	<path style="fill:#0D131A;" d="M383.323,369.823l1.682,0.067c0,1.57,0.359,2.736,1.077,3.499l-3.163-0.269l-8.815-1.682
		c1.615-1.75,2.355-2.759,2.221-3.028L383.323,369.823"/>
	<path style="fill:#0D131A;" d="M418.718,312.358c1.166,7.178,0.628,15.858-1.615,26.041c-2.602,12.022-6.886,21.106-12.852,27.252
		c-2.467,2.467-5.136,4.374-8.007,5.72c1.884-2.108,3.095-4.194,3.634-6.258l1.951-1.817c5.518-5.652,9.51-14.243,11.977-25.772
		c2.108-9.779,2.624-17.989,1.548-24.628c-0.718-4.531-3.275-7.918-7.671-10.161c-3.768-1.929-8.299-3.05-13.592-3.364
		c-4.531-0.224-7.738,0.135-9.622,1.077l0.606-3.23c2.378-1.166,5.832-1.615,10.363-1.346c5.204,0.269,9.914,1.503,14.131,3.701
		C414.68,302.175,417.731,306.437,418.718,312.358"/>
	<path style="fill:#0D131A;" d="M393.484,354.212c-0.269-1.346-1.279-2.198-3.028-2.557l-5.518,0.404
		c-1.884,0.583-3.118,1.346-3.701,2.288c-0.404,0.583-0.493,1.48-0.269,2.692c0.224,1.256,0.695,2.512,1.413,3.768
		c0.807,1.435,1.817,2.692,3.028,3.768c1.301,1.077,2.355,1.57,3.163,1.48c1.032-0.135,2.198-1.705,3.499-4.71
		C393.372,358.294,393.843,355.917,393.484,354.212 M378.95,353.472c0.897-1.391,2.579-2.512,5.047-3.364
		c2.467-0.852,4.755-1.077,6.863-0.673c2.961,0.583,4.665,2.019,5.114,4.307c0.404,2.019,0.112,4.419-0.875,7.2
		c-0.942,2.557-2.108,4.553-3.499,5.989c-1.077,1.166-1.951,1.817-2.624,1.951c-0.987,0.224-2.198-0.292-3.634-1.548
		c-4.217-3.678-6.572-7.492-7.065-11.439C378.187,355.087,378.411,354.279,378.95,353.472"/>
	<path style="fill:#0D131A;" d="M363.271,362.085c-0.493,0.09-0.785,1.346-0.875,3.768l-0.067,5.72c0,0.718,0.157,1.166,0.471,1.346
		h1.615l5.518-1.615c2.961-1.032,4.576-1.817,4.845-2.355c0.269-0.538-1.435-1.862-5.114-3.97
		C366.03,362.915,363.899,361.95,363.271,362.085 M377.066,367.872c0.404,0.583,0.449,1.256,0.135,2.019
		c-0.583,1.256-2.983,2.624-7.2,4.105c-3.185,1.122-5.675,1.817-7.469,2.086l-1.615-0.135c-0.224-0.224-0.381-0.695-0.471-1.413
		c-0.583-8.209-0.247-13.009,1.009-14.4l1.48-0.606c1.974,0,4.598,0.987,7.873,2.961
		C373.948,364.418,376.034,366.212,377.066,367.872"/>
	<path style="fill:#0D131A;" d="M400.886,362.691c0.763,0.135,1.279,0.561,1.548,1.278c0.314,0.987-0.987,3.454-3.903,7.402
		c-2.916,3.993-5.092,6.168-6.527,6.527c-0.852,0.179-2.49-0.807-4.912-2.961c-2.467-2.153-3.678-3.678-3.634-4.576
		c0-1.346,1.032-2.624,3.095-3.835c0.897,1.032,1.884,1.548,2.961,1.548l-3.499,2.019l2.49,2.759c1.57,1.391,2.49,2.086,2.759,2.086
		c0.269-0.045,1.705-1.525,4.307-4.441l4.239-5.181l-2.759,0.269l-6.056,1.884l1.615-3.432
		C396.288,362.915,399.047,362.466,400.886,362.691"/>
	<path style="fill:#0D131A;" d="M314.823,80.883l-3.095,2.961c-2.064-7.626-6.819-15.342-14.265-23.148
		c-7.357-7.761-15.207-13.323-23.551-16.688c-0.807-0.359-1.211-0.763-1.211-1.211c0-0.538,0.471-1.817,1.413-3.835l1.951-5.383
		c0.269-1.57,0.067-2.692-0.606-3.364c-1.615-1.615-3.006-2.422-4.172-2.422c-1.794,0.045-4.329,1.57-7.604,4.576
		c-14.176,13.009-23.417,27.252-27.723,42.729c-4.217,15.207-3.364,30.572,2.557,46.093l-3.701-0.471
		c-6.594-15.566-7.626-30.998-3.095-46.295c4.486-15.073,14.265-29.518,29.338-43.334c4.172-3.768,7.626-5.787,10.363-6.056
		c2.198-0.224,4.351,0.695,6.46,2.759c1.121,1.166,1.682,2.579,1.682,4.239s-1.121,4.957-3.364,9.892
		c10.587,4.217,19.2,9.779,25.839,16.688C308.318,65.115,312.58,72.539,314.823,80.883"/>
	<path style="fill:#0D131A;" d="M172.506,255.903l0.538-0.336l1.75,2.893l-0.538,0.336c-15.432,9.465-28.62,19.761-39.566,30.886
		c-15.297,15.477-22.676,29.54-22.138,42.19c0.135,3.23,0.673,6.101,1.615,8.613c1.077,2.871,2.938,6.101,5.585,9.69
		c3.544,4.89,8.635,9.757,15.275,14.602c8.075,5.966,15.05,8.949,20.927,8.949c6.729,0,14.445-2.019,23.148-6.056
		c7.985-3.723,12.673-6.998,14.063-9.824l2.288,1.144c-1.75,3.454-6.662,7.29-14.736,11.506c-8.837,4.531-16.822,6.796-23.955,6.796
		c-6.774,0-14.781-3.275-24.022-9.824c-8.972-6.28-15.768-13.189-20.389-20.725c-2.512,5.338-3.813,9.847-3.903,13.525
		c-0.045,3.544,1.009,8.277,3.163,14.198c5.742,15.566,13.256,27.454,22.542,35.663c12.157,10.856,26.848,14.826,44.074,11.91
		c19.2-3.23,32.501-8.86,39.903-16.89c5.518-5.966,8.12-13.996,7.806-24.09h3.364c0.269,11.17-2.714,20.119-8.949,26.848
		c-7.985,8.658-21.847,14.647-41.585,17.966c-16.06,2.736-30.28-0.112-42.661-8.546c-12.785-8.658-22.205-22.34-28.262-41.046
		c-2.153-6.594-3.23-12.022-3.23-16.284c0-2.871,0.516-5.854,1.548-8.949c1.032-3.275,2.422-5.944,4.172-8.007
		c-1.884-4.755-2.826-8.501-2.826-11.237c0-14.445,8.277-29.675,24.83-45.689C142.832,275.977,156.222,265.906,172.506,255.903"/>
	<path style="fill:#0D131A;" d="M251.235,119.844c2.557,0.045,3.746,0.449,3.566,1.211c-0.135,0.763-1.166,1.278-3.095,1.548
		c-1.436,0.179-6.303,0.269-14.602,0.269h-11.977c-1.301,0-2.221,0.449-2.759,1.346c-0.359,0.673-0.157,1.817,0.606,3.432
		l6.325,12.112l5.854,11.439c1.166,2.602,1.346,4.531,0.538,5.787c-0.807,1.301-2.108,0.022-3.903-3.835l-6.46-12.65l-5.45-10.632
		c-1.525-3.454-1.794-6.101-0.807-7.94c1.077-1.974,2.916-2.961,5.518-2.961L251.235,119.844"/>
	<path style="fill:#0D131A;" d="M308.565,142.318c6.325-6.594,13.682-11.103,22.071-13.525c2.781-0.763,3.992-0.65,3.634,0.336
		l-1.346,1.682l5.45,6.662c3.499,5.518,5.383,11.462,5.652,17.832c0.583-0.538,1.166-0.538,1.75,0
		c0.583,0.493,0.135,1.346-1.346,2.557c-4.71,3.992-11.977,6.931-21.802,8.815c-8.434,1.615-16.576,2.131-24.426,1.548
		c-0.404,0.359-0.785,0.538-1.144,0.538c-0.763,0.045-1.009-0.695-0.74-2.221C297.619,157.481,301.702,149.406,308.565,142.318
		 M330.771,131.485c-6.415,2.153-12.628,6.168-18.639,12.045c-7.043,6.908-11.484,14.445-13.323,22.609
		c8.523,0.09,15.858-0.449,22.004-1.615c8.254-1.57,15.432-4.351,21.533-8.344c-1.077-6.505-3.073-12.292-5.989-17.361
		C334.561,135.724,332.699,133.279,330.771,131.485"/>
	<path style="fill:#0D131A;" d="M286.023,151.335c1.211-4.8,2.422-7.649,3.634-8.546c1.256-0.942,2.176-1.279,2.759-1.009
		c0.538,0.269,0.359,1.009-0.538,2.221c-0.942,1.391-1.996,3.768-3.163,7.133c-1.256,3.678-2.019,6.863-2.288,9.555
		c-0.314,2.826-0.628,4.284-0.942,4.374c-0.359,0.09-0.673-1.009-0.942-3.297C284.318,159.477,284.812,156,286.023,151.335"/>
	<path style="fill:#0D131A;" d="M251.975,191.103c0.852-1.391,1.772-2.333,2.759-2.826l2.221,0.067
		c0.449,0.583,0.202,1.234-0.74,1.951c-0.628,0.538-1.525,1.75-2.692,3.634l-2.221,2.961l-0.942-0.067l0.269-2.153
		C250.808,193.503,251.257,192.314,251.975,191.103"/>
	<path style="fill:#0D131A;" d="M354.389,181.75c-4.621,4.531-11.349,7.649-20.187,9.353c-6.146,1.211-13.974,1.794-23.484,1.75
		c-5.607-0.09-9.847,0-12.718,0.269c-8.927,0.807-15.948,1.996-21.062,3.566c-5.607,1.75-9.959,4.239-13.054,7.469
		c3.185,2.916,9.892,5.585,20.12,8.007c12.112,2.871,23.506,3.611,34.183,2.221c9.017-1.166,16.486-3.903,22.407-8.209
		C348.266,200.479,352.864,192.337,354.389,181.75 M358.897,174.684c0.269,0.269,0.247,0.785-0.067,1.548l-1.548,2.49
		c-1.211,12.65-5.563,22.295-13.054,28.934c-5.966,5.338-13.794,8.635-23.484,9.892c-22.833,2.961-42.392-0.74-58.676-11.103
		c-2.647,3.14-5.249,4.486-7.806,4.037c-2.288-0.449-5.383-2.4-9.286-5.854c-4.979-4.441-8.68-9.555-11.103-15.342
		c-5.204-12.336-6.034-26.019-2.49-41.046l0.875,3.163c0.179,0.987,0.606,1.884,1.278,2.692c-0.404,3.185-0.606,6.303-0.606,9.353
		c0,9.106,1.458,17.361,4.374,24.762c1.929,4.845,5.047,9.174,9.353,12.987c3.948,3.499,6.908,5.047,8.882,4.643
		c0.807-0.135,2.535-1.413,5.181-3.835c3.813-3.634,8.568-6.37,14.265-8.209c5.563-1.839,13.144-3.185,22.744-4.037
		c2.961-0.269,7.312-0.359,13.054-0.269c10.632,0.09,19.536-0.763,26.714-2.557c7.133-1.75,12.292-4.351,15.477-7.806
		C356.34,175.492,358.314,174.011,358.897,174.684"/>
	<path style="fill:#0D131A;" d="M337.567,57.197c1.48-1.66,3.387-2.804,5.72-3.432c2.288-0.628,4.351-0.606,6.191,0.067
		c2.243,0.852,3.948,2.288,5.114,4.307c0.942,1.705,1.413,3.589,1.413,5.652l-0.202,15.207c-0.045,6.953,0.09,12.134,0.404,15.544
		l-2.826,3.163c-0.314-3.14-0.74-9.914-1.279-20.321l-0.875-15.678c-0.269-2.467-1.256-4.037-2.961-4.71
		c-1.077-0.404-2.445-0.247-4.105,0.471c-2.198,0.942-4.419,2.714-6.662,5.316c-2.647,3.05-7.245,7.357-13.794,12.92
		c-6.819,5.742-11.865,9.51-15.14,11.305c-2.198,1.166-5.563,2.467-10.093,3.903c-23.237,7.178-39.97,16.576-50.198,28.194
		l-2.153,2.624h-4.979l2.355-2.893c6.46-7.312,15.499-14.019,27.118-20.119c8.478-4.441,17.383-8.12,26.714-11.035
		c4.531-1.436,7.738-2.647,9.622-3.634c3.006-1.66,8.277-5.854,15.813-12.583C329.761,65.182,334.696,60.427,337.567,57.197"/>
	<path style="fill:#0D131A;" d="M454.717,51.209c6.729,0.583,10.609,1.974,11.641,4.172c0.673,1.48,0.852,2.938,0.538,4.374
		c-0.359,1.615-1.413,3.477-3.163,5.585c-3.23,3.768-7.312,7.065-12.247,9.892c-1.346,0.852-2.198,1.436-2.557,1.75
		c-0.583,0.493-0.964,1.144-1.144,1.951c0.09,11.529-0.74,22.789-2.49,33.779c-3.409,21.533-10.923,36.426-22.542,44.68
		c-11.439,8.12-21.667,12.74-30.684,13.862c-5.832,0.763-11.551-0.045-17.159-2.422c-3.05-1.256-4.217-2.288-3.499-3.095
		l4.105,0.135c3.589,1.48,7.783,1.951,12.583,1.413c8.478-0.942,18.348-4.912,29.607-11.91c11.17-6.953,18.953-21.802,23.349-44.546
		c2.198-11.439,3.342-22.385,3.432-32.837c0.404-1.346,1.099-2.49,2.086-3.432c0.583-0.583,1.637-1.323,3.163-2.221l4.105-2.692
		c1.75-1.346,3.454-3.006,5.114-4.979c2.781-3.275,3.858-5.675,3.23-7.2c-0.628-1.346-2.692-2.019-6.191-2.019
		c-8.523-0.224-17.742-0.202-27.656,0.067c-19.828,0.449-33.263,1.817-40.306,4.105c-6.774,2.153-13.592,8.097-20.456,17.832
		c-3.723,5.338-8.052,12.942-12.987,22.811c-1.391,2.781-2.602,4.867-3.634,6.258c-0.718,0.987-1.48,1.503-2.288,1.548
		c-0.807,0.045-0.964-0.404-0.471-1.346l3.364-7.94c5.293-10.542,9.869-18.549,13.727-24.022
		c7.088-9.869,14.333-15.992,21.734-18.37c7.447-2.422,20.254-4.037,38.422-4.845C439.398,50.917,449.155,50.805,454.717,51.209"/>
	<path style="fill:#0D131A;" d="M404.452,70.521c-7.761,0-16.845,6.774-27.252,20.321c-3.992,5.249-7.536,10.699-10.632,16.351
		c-2.871,5.338-4.598,9.465-5.181,12.381c4.935,2.512,8.725,6.303,11.372,11.372c3.454,6.594,4.8,15.073,4.037,25.435
		c10.407,1.705,20.03-1.458,28.867-9.488c8.837-8.12,15.095-19.514,18.774-34.183c4.082-16.194,3.342-27.813-2.221-34.856
		C418.404,72.965,412.482,70.521,404.452,70.521 M416.833,69.377c3.589,1.256,6.437,3.252,8.546,5.989
		c2.961,3.723,4.576,9.017,4.845,15.88c0.269,6.549-0.695,14.176-2.893,22.878c-3.903,15.656-10.52,27.476-19.85,35.461
		c-9.331,7.985-20.075,11.058-32.232,9.219c-2.512-0.404-3.701-0.964-3.566-1.682s1.032-1.009,2.692-0.875
		c0.404-9.51-1.391-17.832-5.383-24.964c-2.647-4.71-5.338-7.828-8.075-9.353c-0.942,1.077-1.615,1.368-2.019,0.875
		c-0.359-0.404-0.426-1.346-0.202-2.826c0.449-2.871,1.907-6.931,4.374-12.179c2.826-5.966,6.146-11.619,9.959-16.957
		c10.273-14.4,20.748-22.004,31.424-22.811C409.118,67.672,413.245,68.121,416.833,69.377"/>
	<path style="fill:#0D131A;" d="M378.882,87.612c6.774-2.467,12.628-2.647,17.563-0.538c4.127,1.794,7.379,5.047,9.757,9.757
		c1.794,3.499,3.05,8.389,3.768,14.669c0.942,8.478,0.179,16.262-2.288,23.349c-1.839,5.293-4.441,9.779-7.806,13.458
		c-3.454,3.723-7.963,6.886-13.525,9.488l-3.566-0.404c5.338-2.512,9.981-5.787,13.929-9.824c4.037-4.127,6.908-8.658,8.613-13.592
		c2.333-6.684,2.938-14.041,1.817-22.071c-0.763-5.697-2.041-10.295-3.835-13.794c-2.333-4.71-5.877-7.806-10.632-9.286
		c-4.665-1.48-9.779-1.189-15.342,0.875L378.882,87.612"/>
	<path style="fill:#0D131A;" d="M359.503,264.516c-8.972,6.505-15.163,11.619-18.572,15.342c-5.742,6.235-8.613,12.763-8.613,19.581
		c0,9.421,2.467,16.777,7.402,22.071c3.499,3.813,7.245,5.921,11.237,6.325c1.615,0.179,3.925-0.292,6.931-1.413
		c3.723-1.391,7.245-3.387,10.564-5.989c9.376-7.402,14.849-17.742,16.419-31.02c0.359-2.916,0.538-6.213,0.538-9.892
		c0-11.125-1.75-22.295-5.249-33.51c-1.974,3.05-4.935,6.235-8.882,9.555L359.503,264.516 M337.365,279.252
		c4.127-4.8,10.677-10.407,19.648-16.822l14.063-10.901c5.024-4.441,8.366-8.299,10.026-11.574l0.538,2.557l4.508,15.073
		c2.736,11.933,3.521,22.923,2.355,32.972c-1.57,13.458-7.379,24.045-17.428,31.761c-3.723,2.871-7.649,5.047-11.776,6.527
		c-3.544,1.256-6.415,1.772-8.613,1.548c-4.979-0.583-9.465-2.624-13.458-6.123c-6.056-5.338-9.084-13.077-9.084-23.215
		C328.146,293.607,331.219,286.34,337.365,279.252"/>
	<path style="fill:#0D131A;" d="M262.808,251.932l2.221-1.279c3.948,6.864,8.546,12.852,13.794,17.966
		c2.512,2.512,6.684,6.011,12.516,10.497c4.531,3.544,7.716,6.437,9.555,8.68c2.781,3.499,4.464,7.469,5.047,11.91
		c0.628,5.114-0.314,10.363-2.826,15.746c-2.422,5.249-5.787,9.465-10.093,12.65c-4.082,2.961-8.792,4.71-14.131,5.249
		c-7.536,0.763-15.23-1.166-23.08-5.787l-1.211-2.422c7.178,3.275,13.929,4.867,20.254,4.778c6.37-0.135,11.91-1.929,16.62-5.383
		c3.858-2.826,6.774-6.505,8.748-11.035s2.647-9.151,2.019-13.862c-0.538-4.037-1.974-7.492-4.307-10.363
		c-1.525-1.884-4.486-4.531-8.882-7.94c-5.383-4.217-9.533-7.828-12.449-10.834C271.533,265.256,266.935,259.065,262.808,251.932"/>
	<path style="fill:#0D131A;" d="M272.094,346.81l0.942-2.086l3.634,3.768c2.153,2.736,2.961,4.867,2.422,6.392
		c-0.314,0.987-1.974,2.108-4.979,3.364l-7.335,2.624l0.135-2.153c2.153-0.763,4.127-1.682,5.921-2.759
		c1.525-0.942,2.422-1.682,2.692-2.221c0.179-0.628-0.022-1.615-0.606-2.961C274.247,349.345,273.305,348.022,272.094,346.81"/>
	<path style="fill:#0D131A;" d="M265.163,361.412l2.019-2.49l1.884,6.931c1.211,4.755,1.817,7.559,1.817,8.411l-0.336,2.019
		c-0.224,0.314-0.852,0.606-1.884,0.875l-6.325,0.875c-3.634,0.314-7.021,0.314-10.161,0l1.077-2.355l8.478-0.202
		c2.961-0.359,4.643-0.83,5.047-1.413c0.314-0.404,0.381-1.077,0.202-2.019L265.163,361.412"/>
	<path style="fill:#0D131A;" d="M229.837,382.81l2.49-1.75c2.108,0.897,4.172,1.615,6.191,2.153l4.441,0.404
		c1.032-0.449,1.817-1.929,2.355-4.441l2.893-0.673l-0.404,2.288c-0.359,1.705-0.785,3.05-1.279,4.037
		c-0.493,1.166-0.987,1.862-1.48,2.086h-2.221C239.683,386.556,235.354,385.188,229.837,382.81"/>
	<path style="fill:#0D131A;" d="M185.493,270.37c-0.673,1.839-1.548,5.921-2.624,12.247c-1.615,9.286-2.333,17.742-2.153,25.368
		c-1.794,2.961-2.983,5.854-3.566,8.68c-2.064-8.523-1.839-18.998,0.673-31.424l4.374-15.813L185.493,270.37"/>
	<path style="fill:#0D131A;" d="M251.235,265.794l3.768,0.067c-2.826,3.678-5.226,10.071-7.2,19.177
		c-2.333,10.677-2.378,19.536-0.135,26.579c-1.525-1.391-2.938-2.355-4.239-2.893c-1.48-7.357-1.211-15.701,0.807-25.032
		C246.031,275.484,248.364,269.517,251.235,265.794"/>
	<path style="fill:#0D131A;" d="M176.813,312.627c1.57-6.011,3.835-9.533,6.796-10.564c16.957-5.652,32.276-6.37,45.959-2.153
		c10.273,3.14,17.719,8.075,22.34,14.804c1.75,2.512,3.342,5.585,4.778,9.219c0.942,2.378,1.817,4.194,2.624,5.45
		c1.256,1.974,3.163,4.037,5.72,6.191l1.144,1.009c5.024,4.262,7.514,7.873,7.469,10.834c-0.09,2.916-2.826,9.106-8.209,18.572
		c-4.351,7.671-10.856,12.807-19.514,15.409c-4.89,1.48-11.663,2.221-20.321,2.221h-6.931c-6.011,0-15.656-9.578-28.934-28.733
		c-1.391-1.974-3.163-4.082-5.316-6.325l-4.576-4.576c-2.826-3.05-4.419-7.828-4.778-14.333
		C174.749,324.044,175.332,318.369,176.813,312.627 M249.149,316.665c-4.351-6.236-11.349-10.789-20.994-13.66
		c-12.83-3.858-27.319-3.095-43.469,2.288c-0.763,0.269-1.525,1.032-2.288,2.288c-0.897,1.48-1.66,3.454-2.288,5.921
		c-1.256,4.89-1.637,10.004-1.144,15.342c0.493,5.787,1.929,9.959,4.307,12.516c1.525,1.66,4.576,5.495,9.151,11.506
		c6.639,8.613,11.529,14.647,14.669,18.101c5.921,6.505,10.25,9.645,12.987,9.421l5.518-0.135c8.344-0.045,14.759-0.74,19.245-2.086
		c7.806-2.333,13.682-6.953,17.63-13.862c5.024-8.792,7.581-14.31,7.671-16.553c0.09-2.108-1.974-4.979-6.191-8.613l-1.077-0.942
		c-2.826-2.422-4.979-4.8-6.46-7.133c-0.897-1.391-1.862-3.364-2.893-5.921C252.132,321.734,250.674,318.908,249.149,316.665"/>
	<path style="fill:#0D131A;" d="M260.319,257.046c1.884-3.768,2.445-8.568,1.682-14.4c-0.897-6.908-3.656-12.247-8.277-16.015
		l-5.585-4.71c-5.787-5.024-10.116-8.321-12.987-9.892c-4.621-2.557-8.972-3.23-13.054-2.019c-8.12,2.378-17.383,7.581-27.79,15.611
		c-12.112,9.331-18.46,17.742-19.043,25.233c-0.583,7.312,0.314,12.292,2.692,14.938c1.615,1.75,4.307,2.961,8.075,3.634
		l13.66,0.807h4.912l33.106-1.48C249.821,266.871,257.358,262.968,260.319,257.046 M265.365,242.176
		c0.852,6.549,0.179,12-2.019,16.351c-3.364,6.729-11.417,11.17-24.157,13.323l-34.587,1.817l-4.912-0.067l-15.207-0.74
		c-4.262-0.718-7.379-2.131-9.353-4.239c-1.794-1.929-3.14-4.307-4.037-7.133c-1.077-3.32-1.346-6.751-0.807-10.295
		c1.391-8.658,8.748-18.056,22.071-28.194c11.08-8.478,20.658-13.884,28.733-16.217c4.845-1.436,9.892-0.763,15.14,2.019
		c3.185,1.66,7.895,5.181,14.131,10.564l5.518,4.643C261.171,228.359,264.334,234.415,265.365,242.176"/>
</g>
</svg>
